<svg width="493" height="34" viewBox="0 0 493 34" fill="none" xmlns="http://www.w3.org/2000/svg">
<path d="M491.184 24.1921C491.801 25.5599 490.755 27.6251 489.36 28.0811C487.215 28.8052 488.744 26.5254 488.288 26.1768C487.242 25.3453 486.598 26.6059 485.847 27.196L485.901 27.2496C480.322 26.4182 484.72 23.1192 484.372 21.0004C485.391 20.0349 487.322 22.3414 488.019 19.9008C488.261 19.0693 488.717 17.9966 488.046 17.6211C486.732 16.8701 485.257 17.2992 482.843 17.7016C487.269 18.6671 484.291 19.7667 484.077 20.7054C483.54 20.8664 483.004 21.0273 482.468 21.1882C482.548 23.0656 480.429 23.5752 480.081 23.0388C478.659 20.92 476.969 21.5636 475.172 21.8319C475.065 21.8319 474.824 20.9736 474.663 20.4641C473.644 20.1154 474.877 16.6018 472.034 18.5597C471.713 18.7743 470.05 18.077 470.318 17.192C470.747 15.7705 472.169 15.3949 473.617 15.3949C474.556 16.4141 474.958 18.6134 476.943 17.4601C478.874 16.3336 477.559 14.7513 476.969 13.3298C476.889 13.1152 476.916 12.847 476.916 12.5788C477.425 12.2838 478.123 12.257 478.579 11.8815C478.364 12.552 478.632 13.2225 479.035 13.8394C479.115 13.9735 480.027 13.893 480.107 13.7052C480.644 12.5251 479.249 12.1228 479.008 11.211C479.008 11.211 479.008 11.1842 479.008 11.1573C479.008 11.1573 479.008 11.1841 478.981 11.211C478.981 11.211 478.981 11.2109 478.981 11.1841C478.445 6.11503 476.406 12.552 475.333 10.4868C476.004 9.52129 476.755 8.42161 477.506 7.34879L477.479 7.29518C477.157 7.37564 477.077 8.09981 476.487 7.5634C475.897 7.05381 476.594 6.86606 476.621 6.54421H476.567C476.031 7.26836 475.655 8.2339 474.931 8.71666C471.873 10.7818 473.349 11.3183 475.816 11.5865C476.46 11.6669 476.728 12.0424 476.835 12.5788C475.789 13.5175 475.977 15.985 473.563 15.2876C471.632 12.1765 470.103 12.0961 468.36 15.2609C467.18 17.3797 464.149 17.5406 463.505 20.169C463.505 20.2763 462.352 20.3299 461.977 20.0885C460.287 19.0157 463.371 18.3452 462.084 17.2187C457.846 16.4677 456.049 19.6326 453.957 22.6097C452.214 25.1308 452.16 24.8358 449.478 23.0657C448.111 22.1806 447.118 23.1997 446.501 24.7553C445.107 28.2956 441.915 30.8168 438.777 31.4336C436.417 31.9164 434.593 32.8551 432.635 33.8475C432.045 32.6137 430.463 33.5793 429.738 32.5333C430.114 30.0122 433.198 31.0849 434.191 29.2879C430.329 28.4297 429.738 28.5638 427.673 30.6827C424.884 33.5525 421.558 33.5257 419.01 30.2804C417.079 27.8129 415.336 25.3453 411.661 26.0158C411.554 26.0158 411.313 25.9622 411.286 25.8818C409.757 21.1614 404.098 18.7743 403.937 12.6324C401.952 15.8509 397.768 13.9467 395.542 16.7628C395.462 16.8701 395.328 16.9774 395.194 17.0042C392.163 17.6211 386.45 20.464 385.216 23.1193C384.09 25.6136 382.883 27.5983 380.389 28.6443C378.136 29.583 375.668 31.6481 373.845 28.0274C373.469 27.2764 373.067 27.3032 372.638 27.786C372.128 28.3761 370.733 28.698 371.35 29.6903C372.396 31.3532 372.611 31.0581 370.358 31.3263C365.155 31.9164 361.588 27.2228 356.492 27.7324C355.66 27.8129 353.139 26.7401 353.327 24.4067C353.461 22.9047 351.932 22.2074 351.584 20.759C351.128 18.7743 349.518 18.533 347.614 18.6939C347.131 18.7207 346.354 17.7015 345.415 18.3184C343.725 15.6631 342.223 13.9467 338.924 16.9237C336.886 18.7743 333.882 19.1498 331.87 21.7514C329.215 25.2112 324.897 27.5446 321.25 29.3148C316.502 31.6214 310.146 32.2651 305.13 28.832C300.437 25.6136 295.77 22.0464 293.142 16.6555C292.23 14.7781 291.64 14.644 289.119 15.4218C278.149 18.8548 269.352 27.4373 257.417 28.4565C253.072 28.832 248.861 29.6903 245.508 25.9354C244.597 24.9162 243.658 26.2304 242.531 25.3722C240.788 24.0312 240.976 23.307 242.424 22.2878C237.865 22.4219 236.202 19.4716 235.612 15.2876C225.527 20.0349 215.469 24.2725 205.009 27.2764C198.948 29.0197 192.779 30.5217 186.262 29.2075C180.201 28.0006 176.419 24.3262 173.951 18.9353C172.879 16.5751 172.53 16.0387 169.043 17.2724C158.395 21.0541 148.499 27.6251 136.537 27.3301C132.862 27.2496 129.697 26.0427 126.586 24.4067C122.161 22.0465 123.448 17.5674 122.724 13.7052C114.303 16.8432 106.659 21.5636 98.103 24.0848C96.7083 24.4871 96.4401 26.2304 94.8845 26.8473C87.8307 29.6634 80.8037 26.8473 77.6389 16.9773C76.6465 13.8662 75.9224 14.4563 73.7231 15.4218C67.3667 18.2111 61.788 22.4487 55.1365 24.6748C51.5158 25.8817 47.8682 26.2572 44.2474 25.7745C38.9638 25.0503 37.3277 21.0004 37.0327 16.3337C36.845 13.7589 36.5499 13.0884 33.8947 14.6171C27.565 18.3184 20.7795 21.215 14.6376 25.1576C10.5072 27.8129 5.35768 27.7324 1.57599 30.9509C0.74455 31.6482 0.208147 30.9241 0.0740441 29.8512C-0.194161 27.6251 0.20814 26.0427 2.2465 24.5139C4.95537 22.5024 9.0857 23.012 10.8559 19.5253C8.09335 20.3836 5.3308 21.2418 2.27326 22.1805C2.54147 19.9812 4.25797 19.874 5.27715 19.3376C13.7256 14.9926 21.9863 10.3527 29.6034 4.61313C33.0632 1.98472 39.0442 2.25289 42.3431 4.82766C43.0136 5.33725 43.6841 5.95417 42.9332 6.97335C42.504 7.53658 41.8604 8.18023 41.8872 8.77028C42.0213 10.9964 41.0825 13.5712 42.9332 15.3145C44.8374 17.1115 46.7685 14.9122 48.5386 14.4562C55.0024 12.8202 60.5006 8.79711 66.7229 6.51736C71.2556 4.88131 75.5201 2.17241 80.8305 4.04984C84.0758 5.20312 86.6774 8.26069 85.6314 11.4523C85.0414 13.2493 84.6659 14.9658 86.1142 16.2264C87.5357 17.4333 88.984 15.8777 90.2446 15.3413C98.8003 11.7742 107.168 7.77793 115.831 4.50583C121.195 2.46747 126.962 1.85059 131.816 6.08823C133.372 7.45607 133.506 9.44077 131.816 11.2646C131.012 12.1228 129.268 12.7666 130.395 14.7513C131.387 16.5483 132.728 16.9238 134.552 17.031C141.472 17.5138 147.506 14.3222 153.702 12.1765C160.461 9.84315 167.112 7.13425 173.254 3.35256C175.695 1.85061 184.787 4.53261 187.12 7.32195C187.818 8.15338 188.408 9.11892 189.105 10.0845C188.113 11.2646 186.074 10.755 185.752 12.9007C185.27 15.985 187.067 18.533 190.446 18.4257C194.684 18.2916 198.841 17.3797 202.864 15.985C210.213 13.4102 217.562 10.8355 225.018 8.55575C226.6 8.07298 227.7 7.18786 228.853 6.3296C233.681 2.70883 239.098 4.80083 244.194 4.90812C245.696 4.93494 247.842 8.09981 247.681 10.916C247.359 16.3605 251.516 19.2571 256.8 17.1651C266.053 13.5175 275.279 9.89679 284.479 6.14192C287.456 4.935 290.191 3.08433 293.195 2.06515C294.992 1.44828 297.889 0.241375 297.969 4.26445C297.969 4.63994 298.318 5.06908 298.586 5.3641C299.498 6.30282 298.694 8.85075 300.866 8.36799C302.824 7.91204 301.107 5.82003 301.992 4.50583C302.743 5.44454 303.521 6.32966 303.441 7.64386C303.199 11.7206 306.015 13.9198 308.537 16.3873C311.943 19.713 314.732 16.5483 317.092 15.1804C323.449 11.506 329.349 7.02697 336.162 4.10353C338.039 3.29892 339.166 1.07279 341.821 3.48663C343.081 4.63991 343.94 1.50195 345.361 0C346.675 2.06518 347.963 4.07669 349.223 6.08823C349.947 7.24151 351.476 7.16103 351.61 5.73955C351.798 3.62073 353.622 4.50585 353.541 4.69359C352.227 7.75113 356.304 7.77792 356.492 10.7014C356.787 15.5022 365.933 18.8012 370.117 15.6632C375.105 11.9351 380.684 9.38717 385.941 6.27599C390.795 3.40619 396.481 2.52108 401.845 1.12642C403.857 0.590005 407.022 2.36018 409.73 1.98469C412.627 1.58238 410.213 4.15718 411.393 4.69359C412.01 4.96179 410.75 6.4637 412.412 6.3296C413.646 6.22232 413.566 5.41769 413.673 4.6399C414.907 4.85446 415.819 2.65518 417.616 4.6399C419.734 7.02692 418.635 9.46763 418.635 11.7205C418.635 13.9198 419.681 17.3528 421.826 17.4601C422.336 17.4601 423.06 16.736 423.543 17.5138C423.865 18.0234 423.221 18.3988 422.926 18.828C422.095 20.1422 423.114 21.1077 424.079 21.7514C425.099 22.4219 425.823 22.1538 426.869 21.1346C428.612 19.4449 429.953 16.1996 433.44 17.9965C434.083 18.3184 435.129 17.9965 435.103 19.418C435.049 21.2686 436.712 21.2418 437.704 20.7859C438.992 20.1958 439.474 19.0693 437.919 17.8892C437.302 17.4065 437.329 16.5215 438.294 16.2801C441.861 15.4486 444.087 11.6937 448.084 11.801C448.164 11.801 448.245 11.7742 448.325 11.7474C448.218 11.7474 448.111 11.7474 448.003 11.7205C451.302 10.0845 454.333 7.34881 458.517 9.0385C458.866 9.1726 459.938 8.5289 459.912 8.44844C458.892 4.26444 462.835 6.16869 464.042 4.7472C462.737 7.16105 462.808 10.0487 464.256 13.4103C466.795 10.8712 466.742 9.2173 464.096 8.44844C467.234 7.75111 471.257 9.06529 470.747 4.31806C470.747 4.29124 471.337 4.04986 471.498 4.15715C475.494 6.94648 474.502 2.76246 475.441 1.28733C476.272 -5.2355e-05 476.674 1.12645 477.184 1.50194C476.379 3.08435 476.379 4.74724 476.621 6.46375C477.586 5.98098 477.586 6.59782 477.533 7.26833C478.337 7.3488 479.41 7.72431 479.839 7.37564C483.004 4.66677 481.422 7.93887 481.743 8.79712C481.019 9.11897 481.073 9.78944 481.153 10.4331C481.341 11.6937 482.065 10.7818 482.629 10.8623C484.077 11.05 484.64 12.4715 484.023 14.0003C483.487 15.3145 484.855 15.234 485.257 15.3681C487.322 16.0654 488.395 15.2609 492.123 10.2991C491.694 12.4447 494.617 13.9198 491.667 15.3413C491.56 18.2648 489.736 21.0272 491.157 24.1921H491.184ZM12.4383 19.6058C12.4383 19.418 12.4383 19.2035 12.4383 19.0157C11.9823 19.1498 11.5264 19.2839 11.0436 19.418C11.4996 19.4717 11.9823 19.5521 12.4383 19.6058ZM242.773 21.4832C242.773 21.4832 242.612 21.4295 242.531 21.4027C242.558 21.5905 242.585 21.805 242.612 21.9928C242.665 21.8318 242.719 21.6441 242.746 21.4832H242.773ZM361.775 25.5331C361.588 25.1844 361.319 24.9162 361.024 24.5139C360.756 24.9698 360.515 25.238 360.568 25.3453C360.702 25.6404 360.944 25.9891 361.239 26.0695C361.453 26.15 362.124 26.1499 361.775 25.5062V25.5331ZM407.665 14.8049C407.022 17.1115 409.704 17.9965 409.489 20.5981C412.52 16.8164 408.041 16.7091 407.665 14.8049ZM412.01 8.68982C412.01 8.68982 412.144 8.71661 412.225 8.74343C412.225 8.71661 412.171 8.68979 412.144 8.66297C412.091 8.66297 412.064 8.663 412.01 8.68982ZM417.401 7.99246C417.186 7.67061 417.026 7.45605 416.865 7.24149C416.731 7.59015 416.543 7.93889 416.516 8.31437C416.516 8.52894 416.757 8.77032 416.918 8.98489C417.079 8.63622 417.24 8.28748 417.374 7.99246H417.401ZM445.536 18.9084C445.536 18.9084 445.723 19.0962 445.804 19.2035C445.911 19.123 446.072 19.0157 446.072 18.9353C446.072 18.8548 445.911 18.7475 445.804 18.6402C445.697 18.7207 445.616 18.828 445.509 18.9084H445.536ZM446.34 22.1269C446.26 21.2418 445.75 21.1077 445.214 21.1613C444.838 21.1882 444.463 21.4028 444.087 21.5369C444.436 22.1269 444.785 22.7706 445.563 22.717C445.858 22.717 446.126 22.3414 446.34 22.1537V22.1269ZM457.176 16.6287C457.176 16.6287 456.988 16.441 456.908 16.3337C456.8 16.4141 456.639 16.5214 456.639 16.6019C456.639 16.6824 456.8 16.8701 456.908 16.8701C457.015 16.8701 457.095 16.7092 457.203 16.6019L457.176 16.6287ZM461.145 12.0424C460.877 11.9619 460.636 11.8278 460.394 11.801C460.314 11.801 460.207 11.9619 460.099 12.0424C460.26 12.1765 460.421 12.4447 460.582 12.4179C460.77 12.4179 460.958 12.1765 461.172 12.0424H461.145ZM475.575 19.874C475.065 19.6863 474.877 19.9276 474.824 20.3299C475.065 20.169 475.333 20.0349 475.575 19.874ZM475.789 19.6326C475.789 19.6326 475.736 19.7131 475.709 19.7667C475.709 19.7131 475.762 19.6863 475.789 19.6326ZM482.334 20.9737C482.038 20.0081 481.69 19.0425 481.556 18.0501C481.422 17.0846 480.966 16.2532 480.188 16.1191C479.249 15.985 479.115 17.0042 478.766 17.782C478.257 18.9621 478.766 19.3912 479.437 20.1958C480.295 21.215 481.475 20.4372 482.334 20.9468V20.9737ZM490.487 14.7513C490.621 15.4486 491.184 15.234 491.613 15.2876C491.828 14.5903 491.318 14.5367 490.809 14.5367C490.702 14.5367 490.46 14.6976 490.487 14.7513Z" fill="#38508F"/>
</svg>
