<svg width="655" height="47" viewBox="0 0 655 47" fill="none" xmlns="http://www.w3.org/2000/svg">
<path d="M530.977 44.444C529.447 44.374 527.797 44.774 526.737 43.084C526.397 42.544 525.567 42.564 524.967 42.664C520.507 43.444 516.497 40.764 512.087 41.054C510.867 41.124 510.637 40.334 511.387 39.334C512.137 38.334 511.387 38.054 510.607 37.334C508.217 35.134 504.547 36.334 502.327 33.924C501.967 33.524 500.977 33.634 500.327 33.614C499.747 33.6532 499.166 33.5672 498.622 33.3619C498.079 33.1565 497.586 32.8367 497.177 32.424C495.977 31.174 494.027 31.424 492.747 32.044C491.408 32.5471 490.152 33.2446 489.017 34.114C488.508 34.6449 487.879 35.0463 487.183 35.2846C486.487 35.5229 485.744 35.5913 485.017 35.484C483.137 35.284 482.247 36.844 481.467 37.814C479.177 40.684 475.707 41.114 472.907 42.814C467.907 45.814 462.697 43.814 457.637 44.464C457.096 44.6013 456.525 44.5629 456.007 44.3543C455.489 44.1458 455.052 43.7779 454.757 43.304C454.617 43.064 454.237 42.764 454.007 42.804C451.167 43.244 448.877 41.084 446.107 41.144C444.677 41.144 443.697 40.824 443.867 38.964C444.007 37.544 441.747 35.644 440.127 35.524C437.947 35.344 435.657 35.954 433.797 33.924C433.311 33.5671 432.705 33.4135 432.108 33.4956C431.51 33.5778 430.968 33.8892 430.597 34.364C430.333 34.7587 429.963 35.0707 429.529 35.2636C429.096 35.4565 428.616 35.5225 428.147 35.454C425.427 35.024 423.497 36.234 421.947 38.284C421.347 39.084 420.867 39.284 420.097 38.434C418.687 36.874 417.417 37.054 416.007 38.664C414.573 40.1481 412.688 41.1152 410.647 41.414C407.847 42.034 405.067 42.414 402.227 42.804C400.977 42.954 400.227 44.334 398.597 44.554C395.417 44.994 393.277 42.784 390.597 42.034C389.453 41.6192 388.265 41.3374 387.057 41.194C385.297 41.114 383.397 41.564 382.167 39.664C381.977 39.374 381.297 39.284 380.847 39.314C380.075 39.3726 379.301 39.2452 378.59 38.9424C377.878 38.6396 377.249 38.1703 376.757 37.574C374.757 35.434 371.637 34.974 369.387 33.374C366.687 31.454 363.987 31.854 361.177 31.764C360.672 31.6617 360.149 31.7073 359.67 31.8954C359.191 32.0834 358.777 32.4059 358.477 32.824C358.297 33.124 357.827 33.484 357.537 33.444C354.207 33.004 352.537 35.444 350.607 37.384C350.327 37.654 350.087 38.054 349.747 38.164C346.467 39.244 344.427 42.894 340.497 42.634C340.107 42.634 339.557 42.564 339.347 42.784C336.577 45.784 333.007 44.104 329.797 44.504C328.947 44.604 328.047 44.394 327.207 44.504C323.757 45.064 321.007 43.504 318.067 42.024C315.817 40.914 314.127 39.174 312.167 37.974C310.207 36.774 308.257 34.784 305.477 35.414C305.126 35.4706 304.766 35.44 304.429 35.3249C304.093 35.2098 303.79 35.0137 303.547 34.754C302.739 33.9814 301.664 33.5502 300.547 33.5502C299.429 33.5502 298.354 33.9814 297.547 34.754C297.307 34.954 297.057 35.234 296.787 35.274C293.957 35.744 291.167 35.514 288.327 37.074C286.617 38.014 284.627 38.624 283.177 40.074C282.82 40.588 282.279 40.9458 281.667 41.074C277.427 41.444 273.387 43.284 269.017 42.624C268.511 42.5514 267.996 42.613 267.522 42.8025C267.048 42.9921 266.632 43.303 266.317 43.704C265.317 44.814 262.127 44.794 261.127 43.704C260.337 42.814 259.417 42.834 258.437 42.574C255.247 41.714 251.947 41.494 248.907 39.714C247.077 38.634 245.687 36.884 243.907 36.184C241.647 35.274 239.787 33.184 236.907 33.554C234.552 33.6991 232.191 33.6991 229.837 33.554C228.207 33.554 226.477 33.244 225.407 35.014C225.336 35.1085 225.244 35.1844 225.138 35.235C225.031 35.2855 224.914 35.3092 224.797 35.304C221.987 34.584 220.127 36.984 217.687 37.504C216.357 37.784 215.687 39.134 214.687 40.014C213.316 41.0852 211.83 42.0008 210.257 42.744C204.617 46.104 198.627 43.744 192.867 44.434C192.187 44.514 191.267 44.574 190.867 43.964C189.867 42.384 188.337 42.624 186.867 42.574C185.397 42.524 184.197 42.574 182.867 42.494C182.147 42.494 181.297 42.394 181.167 41.544C180.817 39.164 178.867 37.844 177.457 36.344C176.217 35.014 174.107 34.434 172.307 33.704C171.933 33.5504 171.517 33.5356 171.134 33.6621C170.751 33.7887 170.425 34.0483 170.217 34.394C169.957 34.784 169.437 35.444 169.217 35.184C167.517 33.274 166.217 35.844 164.607 35.514C162.997 35.184 161.157 35.514 159.427 35.464C157.517 35.394 157.007 37.264 155.707 38.034C155.277 38.294 155.077 39.034 154.487 39.034C149.657 38.874 146.077 42.794 141.107 42.894C138.787 42.894 136.277 44.694 133.527 44.414C132.527 44.314 131.527 44.414 130.837 43.334C130.726 43.1195 130.556 42.9414 130.346 42.8208C130.137 42.7003 129.898 42.6424 129.657 42.654C125.857 43.034 122.327 41.654 118.657 41.184C116.597 40.944 115.737 39.494 114.577 38.374C113.257 37.114 112.277 36.924 111.057 38.374C109.837 39.824 109.367 38.934 109.307 37.724C109.227 35.964 108.307 35.404 106.737 35.484C105.387 35.554 104.057 35.554 103.207 34.154C103.028 33.9357 102.792 33.7721 102.525 33.6818C102.258 33.5916 101.971 33.5785 101.697 33.644C98.8867 34.004 95.6967 32.364 93.3367 35.234C93.2488 35.3142 93.1432 35.3723 93.0284 35.4036C92.9137 35.4349 92.793 35.4385 92.6766 35.414C89.9666 34.634 88.5067 37.644 86.0267 37.604C85.7467 37.604 85.3866 38.044 85.1866 38.354C83.5566 40.914 80.4666 41.044 78.1866 42.574C75.0366 44.724 71.0467 43.744 67.8767 45.574C67.7567 45.634 67.5167 45.684 67.4467 45.574C65.1067 43.354 62.2067 44.824 59.5867 44.404C57.3367 44.054 55.7267 42.404 53.5867 41.794C51.4467 41.184 49.5867 39.944 47.5867 39.144C46.5452 38.609 45.6573 37.8174 45.0067 36.844C44.5514 36.3157 43.9727 35.9079 43.322 35.6567C42.6714 35.4055 41.9689 35.3187 41.2767 35.404C37.4167 35.404 33.5367 35.674 29.7167 35.314C26.7167 35.034 24.8866 37.044 22.5466 38.004C20.0066 39.004 17.8167 40.664 14.9467 41.264C12.0767 41.864 9.42673 42.684 6.52673 42.634C6.36891 42.6289 6.2119 42.6586 6.06677 42.7208C5.92164 42.783 5.79183 42.8762 5.68664 42.994C4.82664 44.324 3.49672 44.884 2.26672 44.054C1.57093 43.6787 0.99355 43.1167 0.599607 42.4313C0.205664 41.7458 0.0106697 40.9641 0.0366188 40.174C0.146619 38.774 -0.273313 37.284 0.356687 35.974C0.738034 35.0634 1.42513 34.3144 2.29956 33.8562C3.17399 33.398 4.18097 33.2593 5.14673 33.464C5.73673 33.544 6.50663 33.574 6.79663 32.854C7.08663 32.134 6.43673 31.854 6.02673 31.554C5.61673 31.254 5.22664 30.654 5.80664 30.174C6.38664 29.694 6.73661 30.244 7.15661 30.624C7.98367 31.3089 9.02768 31.677 10.1014 31.6624C11.1752 31.6477 12.2087 31.2513 13.0167 30.544C14.5167 29.424 16.7166 29.394 17.9166 27.774C19.5566 25.574 21.9167 25.994 24.1167 25.934C25.5067 25.934 26.9367 26.094 27.8867 24.584C28.3267 23.894 29.3267 24.074 30.1067 24.074C33.4867 24.074 36.8867 24.214 40.2467 23.984C44.0967 23.714 46.9367 25.614 50.2467 27.194C53.3367 28.684 55.1866 31.254 57.7966 33.004C61.6566 35.594 66.2067 36.004 70.6967 35.174C72.6967 34.814 73.7967 32.664 75.1367 31.234C76.7567 29.514 79.0067 29.234 80.8567 28.064C82.8567 26.804 85.3167 25.994 87.3467 24.574C87.8726 24.2241 88.4955 24.0491 89.1267 24.074C90.4767 24.074 91.7866 24.074 92.6566 22.694C92.8766 22.354 93.6566 22.234 94.1666 22.234C97.1666 22.234 100.167 22.234 103.167 22.234C103.481 22.1936 103.802 22.2381 104.093 22.3629C104.385 22.4877 104.638 22.6884 104.827 22.944C105.407 23.894 106.517 23.694 107.217 24.134C109.817 25.744 112.847 25.474 115.487 26.414C117.097 26.984 118.577 27.844 120.387 27.924C122.197 28.004 122.507 29.864 123.797 30.574C124.187 30.784 124.507 31.464 124.797 31.434C128.567 31.134 131.557 34.504 135.507 33.564C137.387 33.124 139.637 34.084 141.067 31.954C141.184 31.8501 141.323 31.7737 141.473 31.7304C141.624 31.6872 141.782 31.6781 141.937 31.704C144.817 32.144 146.597 30.484 148.227 28.494C148.417 28.274 148.787 27.974 148.997 28.024C151.807 28.704 153.997 26.864 156.077 25.774C162.977 22.194 170.187 24.774 177.217 24.204C179.047 24.044 180.627 25.954 182.507 26.634C183.387 26.954 184.167 27.874 185.327 27.934C186.027 27.934 186.387 28.444 186.597 29.124C187.757 32.724 188.427 33.204 192.297 33.544C192.92 33.5744 193.529 33.7344 194.087 34.014C197.087 35.774 199.617 35.744 202.977 34.104C205.397 32.924 207.437 31.104 209.707 30.224C212.587 29.144 214.117 26.954 216.187 25.224C216.902 24.5265 217.849 24.1171 218.847 24.074C220.757 24.024 222.847 24.504 224.197 22.494C224.417 22.174 225.197 22.204 225.767 22.194C229.307 22.194 232.847 22.194 236.387 22.194C236.927 22.194 237.727 22.194 237.947 22.514C239.417 24.604 241.597 24.044 243.557 24.044C245.517 24.044 247.377 24.044 248.487 25.964C249.767 28.154 252.487 27.854 254.207 29.604C255.498 31.0225 257.105 32.1174 258.898 32.8001C260.691 33.4828 262.619 33.7342 264.527 33.534C265.858 33.4246 267.196 33.4246 268.527 33.534C272.817 33.774 276.117 31.754 279.117 29.004C279.407 28.734 279.697 28.154 279.907 28.194C282.907 28.704 284.977 26.104 287.747 25.974C288.213 26.0369 288.687 25.9747 289.121 25.7937C289.555 25.6127 289.933 25.3194 290.217 24.944C290.757 24.084 291.697 24.174 292.557 24.164C294.677 24.004 296.806 24.004 298.927 24.164C300.657 24.394 301.397 22.274 302.537 22.674C303.677 23.074 304.537 24.244 306.017 24.154C308.597 23.994 310.397 26.014 312.647 26.854C314.647 27.614 316.167 29.414 318.397 29.854C319.897 30.154 320.487 31.634 321.567 32.484C322.127 32.914 322.517 33.484 323.307 33.484C325.117 33.484 326.837 33.484 328.187 35.124C328.494 35.3847 328.884 35.5278 329.287 35.5278C329.69 35.5278 330.08 35.3847 330.387 35.124C332.197 32.794 334.677 33.724 336.917 33.564C338.294 33.5453 339.615 33.0182 340.627 32.084C343.627 29.364 347.187 27.274 350.337 24.624C351.445 23.6742 352.734 22.9586 354.126 22.5203C355.518 22.0821 356.984 21.9302 358.437 22.074C362.557 22.574 366.767 22.204 370.937 22.204C372.057 22.204 373.127 22.204 373.837 23.354C374.089 23.6628 374.425 23.8928 374.804 24.0168C375.184 24.1408 375.59 24.1537 375.977 24.054C376.789 23.9211 377.622 24.0418 378.363 24.3997C379.104 24.7576 379.716 25.3353 380.117 26.054C380.413 26.6024 380.843 27.0664 381.368 27.4023C381.893 27.7382 382.495 27.935 383.117 27.974C384.607 28.114 385.117 29.784 386.317 30.534C386.637 30.734 386.897 31.354 387.117 31.324C390.497 30.874 392.967 34.104 396.387 33.544C397.558 33.379 398.746 33.379 399.917 33.544C403.487 33.974 405.987 31.624 408.917 30.434C411.127 29.554 412.917 27.434 415.627 27.794C416.091 27.909 416.58 27.8742 417.024 27.6946C417.467 27.515 417.843 27.1998 418.097 26.794C418.217 26.594 418.447 26.304 418.597 26.324C421.677 26.714 423.907 24.034 426.887 24.054C430.507 24.054 434.127 24.054 437.747 24.054C439.507 24.054 441.437 23.654 442.617 25.584C442.697 25.6718 442.797 25.7399 442.908 25.7833C443.019 25.8266 443.138 25.8439 443.257 25.834C446.967 25.234 448.577 28.314 450.677 30.294C452.517 32.024 454.007 33.994 456.917 33.584C457.309 33.5493 457.7 33.6596 458.017 33.894C461.017 36.164 463.897 36.204 466.827 33.824C466.949 33.7261 467.09 33.6543 467.242 33.613C467.393 33.5717 467.551 33.5619 467.707 33.584C470.397 34.224 471.867 31.304 474.337 31.334C474.457 31.334 474.697 31.154 474.687 31.074C474.397 27.724 477.687 27.414 479.377 26.614C481.477 25.614 483.377 23.524 486.087 24.004C486.437 24.1213 486.814 24.1316 487.17 24.0337C487.527 23.9357 487.846 23.7339 488.087 23.454C488.847 22.274 490.207 22.594 491.087 22.084C493.717 20.604 496.157 22.084 498.617 21.944C502.127 21.814 504.927 23.484 507.797 24.534C510.794 25.4359 513.714 26.5797 516.527 27.954C516.817 28.0627 517.087 28.2181 517.327 28.414C521.047 32.814 525.907 34.014 531.407 33.514C532.272 33.439 533.142 33.439 534.007 33.514C537.147 33.794 539.237 31.324 541.907 30.514C545.747 29.414 547.907 24.514 552.727 25.854C553.152 25.9715 553.604 25.945 554.013 25.7786C554.422 25.6122 554.764 25.3152 554.987 24.934C555.179 24.6311 555.452 24.3886 555.776 24.2347C556.1 24.0807 556.461 24.0216 556.817 24.064C557.482 24.1184 558.151 24.0296 558.779 23.8036C559.407 23.5777 559.979 23.2197 560.457 22.754C561.237 21.994 562.667 21.754 563.267 22.534C564.717 24.414 566.617 23.884 568.427 24.004C570.427 24.144 572.597 23.444 573.987 25.594C574.011 25.6253 574.044 25.6499 574.08 25.6656C574.117 25.6813 574.157 25.6876 574.197 25.684C579.327 25.444 581.077 30.134 584.317 32.684C584.497 32.834 584.667 33.174 584.807 33.154C587.967 32.724 590.257 35.564 593.347 35.394C594.477 35.324 595.547 35.394 596.257 34.244C596.366 34.0771 596.514 33.939 596.688 33.8415C596.862 33.744 597.057 33.69 597.257 33.684C600.197 34.164 602.607 32.684 605.067 31.534C606.577 30.814 608.067 29.814 608.307 27.934C608.457 26.934 609.017 26.524 609.887 25.934C612.517 24.184 615.987 24.734 618.427 22.564C618.867 22.174 619.777 22.234 620.427 22.224C623.657 22.224 626.877 22.224 630.107 22.224C631.787 22.224 633.567 21.874 634.807 23.644C635.057 24.014 635.957 24.014 636.567 24.054C637.967 24.154 639.447 23.904 640.327 25.454C640.453 25.5911 640.609 25.6989 640.781 25.7697C640.954 25.8405 641.14 25.8727 641.327 25.864C644.597 25.624 646.897 27.554 649.327 29.324C649.387 29.374 649.447 29.464 649.507 29.464C653.657 29.594 652.507 32.704 652.727 35.104C652.787 35.944 652.587 36.844 653.297 37.554C653.647 37.894 654.457 38.084 653.987 38.794C653.657 39.284 652.987 39.164 652.447 39.194C650.977 39.264 649.447 39.034 648.447 40.624C648.302 40.791 648.125 40.927 647.926 41.0234C647.727 41.1199 647.511 41.175 647.29 41.1853C647.07 41.1956 646.849 41.1609 646.642 41.0833C646.435 41.0057 646.246 40.8869 646.087 40.734C643.997 39.064 642.087 37.294 639.087 37.104C638.157 37.034 637.087 35.844 636.477 34.934C636.11 34.4269 635.611 34.0307 635.034 33.789C634.457 33.5473 633.825 33.4694 633.207 33.564C630.767 33.564 628.317 33.704 625.897 33.504C621.897 33.154 618.697 34.964 615.217 36.724C612.929 38.0498 610.784 39.608 608.817 41.374C607.856 42.1876 606.624 42.6089 605.367 42.554C604.177 42.554 602.977 42.554 602.297 43.814C602.297 43.874 602.187 43.964 602.137 43.964C598.587 43.964 595.657 47.534 592.047 46.134C590.047 45.344 587.677 44.854 585.967 43.324C585.647 43.0355 585.269 42.8192 584.858 42.6898C584.448 42.5604 584.014 42.5209 583.587 42.574C581.407 42.774 580.127 41.084 578.427 40.344C575.197 38.954 573.517 35.234 569.257 35.164C567.257 35.164 565.257 33.164 562.787 33.564C561.697 33.724 560.657 33.624 559.867 34.694C559.077 35.764 557.537 35.404 556.327 35.434C555.604 35.4071 554.884 35.5281 554.21 35.7895C553.536 36.0509 552.922 36.4471 552.407 36.954C549.847 39.324 546.627 40.394 543.167 41.394C540.107 42.284 536.427 41.394 533.817 44.094C533.287 44.834 531.987 44.384 530.977 44.444Z" fill="#E9C82D"/>
<path d="M37.0668 1.93385C38.1658 1.99886 39.2678 1.99886 40.3668 1.93385C43.4868 1.55385 45.4968 4.07385 48.0668 4.81385C51.3168 5.75385 53.0668 8.68385 56.1168 9.81385C57.8168 10.4538 60.1168 10.8938 61.4268 12.7038C61.8268 13.2638 62.5468 13.2138 63.1668 13.2238C64.3468 13.2238 65.5368 13.1638 66.7068 13.2238C71.0368 13.6338 74.3768 11.5638 77.3468 8.83385C79.0268 7.29385 81.2268 6.89385 83.0768 5.73385C84.9268 4.57385 87.3468 3.92385 89.1968 2.48385C89.9159 1.99823 90.7848 1.78545 91.6469 1.88385C97.3069 1.88385 102.977 1.88385 108.647 1.88385C109.647 1.88385 110.647 1.94385 111.307 3.00385C111.426 3.21385 111.602 3.38666 111.814 3.50315C112.026 3.61963 112.265 3.67525 112.507 3.66385C116.677 3.49385 119.507 6.72385 123.137 7.97385C126.047 8.97385 128.467 11.3438 131.827 11.4838C132.827 11.4838 133.087 13.1338 134.307 13.0838C135.956 13.0611 137.58 12.6789 139.067 11.9638C141.137 10.9638 143.067 8.91384 145.787 9.36384C147.787 9.69384 148.377 7.62385 149.727 6.80385C150.107 6.57385 150.377 5.91385 150.727 5.89385C152.977 5.73385 155.037 4.28385 156.937 4.08385C159.677 3.79385 161.447 1.38385 164.337 1.79385C166.995 2.10317 169.679 2.10317 172.337 1.79385C176.767 1.39385 179.907 3.64385 182.887 6.40385C182.947 6.40385 182.967 6.59385 183.017 6.59385C186.377 7.05385 188.297 9.97385 191.017 11.5938C194.757 13.8038 198.397 12.7838 202.077 13.1538C204.707 13.4138 206.467 11.2738 208.717 10.4338C209.467 10.1438 210.167 9.43385 211.137 9.33385C211.49 9.33372 211.832 9.20793 212.101 8.97894C212.371 8.74996 212.55 8.43271 212.607 8.08385C213.607 4.84385 214.717 3.95385 217.917 3.73385C218.077 3.73385 218.277 3.73385 218.387 3.73385C220.837 2.07385 224.167 2.63385 226.317 1.41385C229.117 -0.176155 231.687 0.303845 234.377 0.0438455C234.843 -0.0450995 235.324 0.00189643 235.764 0.179221C236.204 0.356545 236.583 0.656702 236.857 1.04385C237.687 2.21385 239.057 2.04385 240.127 1.82385C243.127 1.24385 245.037 3.41385 247.307 4.47385C249.577 5.53385 251.467 6.85385 253.747 7.59385C255.207 8.06385 255.747 9.46385 256.947 10.2138C257.257 10.4238 257.497 11.0638 257.727 11.0338C260.567 10.7238 262.727 12.8438 265.347 13.1438C266.587 13.2838 267.857 13.3038 268.697 11.9838C269.167 11.2338 270.097 11.3438 270.867 11.3638C275.057 11.4638 278.247 9.36385 281.167 6.69385C281.447 6.43385 281.777 5.90385 282.007 5.94385C285.007 6.45385 287.177 3.65385 290.087 3.75385C290.397 3.75385 290.827 3.75385 290.997 3.62385C293.857 0.623845 297.507 2.29385 300.797 1.92385C302.267 1.75385 303.797 2.02385 305.277 1.92385C308.427 1.60385 310.607 2.86385 313.147 4.83385C315.687 6.80385 318.147 8.83385 320.457 11.0038C320.931 11.2814 321.479 11.407 322.027 11.3638C323.497 11.4438 325.027 11.2138 326.027 12.8238C326.357 13.3638 327.167 13.2638 327.797 13.2638C329.13 13.1785 330.467 13.1986 331.797 13.3238C336.187 14.1338 339.207 12.0638 341.877 8.97385C343.187 7.44385 344.647 6.05385 346.047 4.60385C346.207 4.43385 346.387 4.15385 346.567 4.14385C349.007 4.14385 351.087 3.14385 353.267 2.14385C354.587 1.54385 356.267 1.97385 357.417 0.473845C357.717 0.0738455 358.737 0.133845 359.417 0.113845C361.547 0.113845 363.667 0.113845 365.797 0.113845C367.487 0.113845 369.117 -0.0961546 370.517 1.50385C371.387 2.50385 373.067 1.91385 374.387 1.96385C375.039 1.92475 375.691 2.02793 376.299 2.26623C376.907 2.50453 377.455 2.87224 377.907 3.34385C379.907 5.40385 382.527 6.60385 385.127 7.90385C386.887 8.78385 389.127 9.14384 390.457 10.7838C390.719 11.0369 391.035 11.2269 391.382 11.3396C391.728 11.4522 392.096 11.4844 392.457 11.4338C393.937 11.4838 395.327 11.3738 396.457 12.8138C396.654 13.0188 396.892 13.1795 397.155 13.2852C397.419 13.3909 397.702 13.4392 397.986 13.4269C398.27 13.4146 398.548 13.342 398.802 13.2139C399.055 13.0857 399.279 12.9051 399.457 12.6838C400.397 11.4838 401.537 11.4338 402.807 11.4238C403.238 11.4816 403.676 11.4187 404.073 11.2421C404.47 11.0656 404.811 10.7823 405.057 10.4238C405.247 10.1138 405.697 9.68384 405.947 9.74384C408.737 10.3438 410.847 8.47385 412.997 7.42385C414.777 6.55385 416.897 6.11385 418.347 4.59385C418.565 4.36813 418.829 4.19026 419.119 4.07148C419.41 3.95271 419.723 3.89563 420.037 3.90385C421.667 3.83385 423.337 4.05385 424.467 2.36385C424.847 1.79385 425.787 2.00385 426.467 2.00385C429.467 2.00385 432.467 2.16385 435.467 1.92385C439.047 1.63385 441.707 3.43385 444.467 5.17385C444.727 5.34385 445.027 5.63385 445.277 5.59385C449.067 5.04385 450.827 8.09385 452.847 10.2238C454.867 12.3538 456.847 13.7838 459.847 13.3238C460.63 13.2188 461.424 13.2188 462.207 13.3238C468.577 14.1338 473.207 11.1538 477.267 6.67385C478.521 5.50609 479.915 4.4984 481.417 3.67385C485.927 0.673846 490.687 2.46385 495.297 1.99385C497.857 1.73385 500.507 2.19385 503.077 1.94385C507.287 1.52385 510.637 3.29385 513.347 6.08385C515.007 7.78385 517.187 8.28384 519.037 9.27384C521.097 10.3638 523.217 12.3538 526.037 11.6238C526.577 11.4938 526.917 12.1738 527.327 12.5338C528.517 13.6138 531.547 13.5938 532.767 12.5338C533.117 12.2338 533.457 11.6838 533.767 11.6638C537.197 11.5138 539.767 9.46385 542.657 7.99385C545.127 6.72385 547.767 5.83385 550.067 4.19385C550.796 3.90368 551.587 3.80055 552.367 3.89385C553.487 3.89385 554.537 3.83385 555.257 2.71385C555.797 1.87385 556.787 2.02385 557.637 2.01385C562.047 2.01385 566.447 2.01385 570.857 2.01385C573.227 2.01385 574.857 3.75385 576.857 4.59385C579.927 5.88385 582.087 8.73385 584.707 10.7538C587.947 13.2538 592.347 14.6338 596.227 13.0338C598.677 12.0338 601.117 11.9738 603.417 11.1838C605.157 10.5938 606.667 8.83385 607.887 7.29385C609.397 5.41385 611.687 5.03385 613.557 4.09385C622.077 -0.186154 631.317 2.74385 640.227 2.09385C640.421 2.07221 640.617 2.08936 640.804 2.1443C640.991 2.19924 641.165 2.29087 641.317 2.41385C643.317 5.34385 647.227 5.97385 649.257 8.91385C650.087 10.1138 651.847 9.29385 652.937 10.6438C655.167 13.4138 655.367 15.3338 652.197 16.6438C649.847 17.6438 647.757 19.6438 644.687 19.1138C642.807 18.7638 641.687 18.4338 641.917 16.3338C642.097 14.5138 641.107 14.0638 639.507 13.1538C633.677 9.87384 627.507 12.2438 621.647 11.5338C621.295 11.4547 620.926 11.4884 620.594 11.6302C620.262 11.772 619.983 12.0147 619.797 12.3238C618.337 14.9738 615.357 15.7238 613.027 16.7538C610.407 17.8938 608.727 19.9238 606.497 21.3538C606.307 21.4738 606.217 21.8338 606.037 21.8738C601.737 22.7338 597.417 25.9538 593.187 23.8738C590.107 22.3638 587.067 23.1238 584.287 22.1438C581.977 21.3338 579.287 20.6638 577.547 18.5738C576.149 17.1126 574.537 15.8718 572.767 14.8938C570.377 13.3738 568.127 13.4738 565.767 13.2738C565.317 13.2738 564.687 13.1438 564.477 12.8338C563.307 11.1338 562.327 11.4038 561.197 12.8938C560.747 13.4738 559.867 13.4138 559.197 13.3138C558.154 13.1116 557.075 13.222 556.094 13.6312C555.114 14.0404 554.276 14.7302 553.687 15.6138C553.279 16.1864 552.719 16.6332 552.071 16.9036C551.422 17.1741 550.71 17.2573 550.017 17.1438C549.511 17.0479 548.989 17.1041 548.515 17.3052C548.042 17.5064 547.639 17.8435 547.357 18.2738C547.169 18.5303 546.916 18.7315 546.624 18.8564C546.332 18.9813 546.012 19.0254 545.697 18.9838C544.037 18.9838 542.437 19.9838 541.047 20.0538C536.807 20.3238 533.137 23.4638 528.697 22.3238C528.233 22.2137 527.75 22.2137 527.287 22.3238C523.727 23.1238 521.047 20.3238 517.887 19.9938C513.817 19.5638 511.187 16.7438 508.017 14.9938C506.297 13.9938 504.017 13.8838 502.717 11.9938C502.317 11.3938 501.417 11.5438 500.717 11.5338C498.361 11.6559 495.999 11.6225 493.647 11.4338C489.057 10.7738 486.077 12.9938 482.817 15.8538C480.436 17.804 477.806 19.4282 474.997 20.6838C472.564 21.8348 469.908 22.4357 467.217 22.4438C466.617 22.4438 466.357 23.0638 466.007 23.4438C465.657 23.8238 464.747 24.2338 464.367 23.6638C463.147 21.8238 461.367 22.3738 459.677 22.3038C458.417 22.2438 457.157 22.2538 455.897 22.3038C451.897 22.3038 448.607 20.6638 445.737 17.8838C444.457 16.6538 442.217 16.8838 441.107 15.1238C440.671 14.4217 440.032 13.8681 439.275 13.5361C438.519 13.2041 437.679 13.1092 436.867 13.2638C436.398 13.323 435.922 13.2527 435.49 13.0606C435.058 12.8685 434.687 12.5618 434.417 12.1738C434.243 11.9291 434.017 11.7256 433.755 11.5778C433.493 11.4301 433.203 11.3416 432.903 11.3187C432.603 11.2958 432.303 11.339 432.022 11.4453C431.74 11.5516 431.486 11.7184 431.277 11.9338C430.037 13.4338 428.557 13.3838 427.027 13.2738C422.697 12.9538 419.427 15.0738 416.377 17.7238C415.917 18.1238 415.647 18.8038 414.947 18.8338C412.151 18.8237 409.375 19.3078 406.747 20.2638C405.157 20.9238 403.377 20.9838 401.617 21.7838C399.547 22.7238 396.557 23.2338 394.357 21.1438C393.357 20.1438 392.147 20.4438 391.017 20.4338C387.727 20.4338 384.697 20.4338 382.017 17.6638C381.017 16.6038 378.717 15.6638 376.937 14.8538C375.157 14.0438 372.937 13.7338 371.587 12.0338C371.487 11.9138 371.347 11.7338 371.237 11.7438C367.417 11.9438 364.337 8.67384 360.307 9.53384C358.94 9.9806 357.68 10.7058 356.607 11.6638C354.797 12.9038 352.447 13.0338 350.927 14.9038C348.927 17.3438 345.367 17.7138 343.337 20.2138C341.667 22.2138 339.427 22.3738 337.017 22.3238C331.587 22.2138 326.157 22.2738 320.727 22.2538C319.617 22.2538 318.547 22.2538 317.817 21.1138C317.217 20.1838 316.147 20.3538 315.227 20.3738C313.557 20.4238 312.677 19.7738 312.797 18.0238C312.917 16.2738 311.797 15.9138 310.547 14.9438C308.017 13.0138 305.407 13.5538 302.797 13.2038C302.326 13.143 301.898 12.8986 301.607 12.5238C300.317 11.0238 298.997 11.0238 297.607 12.4138C297.337 12.6838 296.977 13.1138 296.697 13.0838C293.267 12.6838 290.347 14.5138 287.177 15.1338C285.057 15.5438 283.937 16.9238 282.947 18.4138C282.604 19.0747 282.071 19.618 281.417 19.9743C280.763 20.3307 280.018 20.4837 279.277 20.4138C277.707 20.3338 276.127 20.4138 274.557 20.4138C273.367 20.4138 272.197 20.4138 271.447 21.6138C271.087 22.2038 270.377 22.2238 269.747 22.2238H259.117C258.765 22.2815 258.405 22.2442 258.073 22.1159C257.74 21.9875 257.448 21.7728 257.227 21.4938C256.949 21.0571 256.54 20.7188 256.059 20.5268C255.578 20.3348 255.049 20.2988 254.547 20.4238C253.763 20.5128 252.97 20.4151 252.231 20.1387C251.492 19.8624 250.83 19.4153 250.297 18.8338C248.357 16.8338 245.387 16.2538 243.877 13.7638C243.83 13.7002 243.77 13.6475 243.701 13.6095C243.632 13.5715 243.556 13.5491 243.477 13.5438C239.777 13.8938 236.887 10.4938 233.017 11.3538C231.381 11.619 229.713 11.619 228.077 11.3538C224.777 10.9538 222.447 12.8438 220.077 14.5438C219.478 14.9344 218.79 15.1683 218.077 15.2238C217.527 15.3238 216.787 15.3738 216.737 15.9938C216.407 19.9238 212.597 18.9038 210.607 20.4338C207.247 23.0138 203.377 22.1338 199.667 22.3738C199.201 22.4044 198.752 22.5598 198.367 22.8238C195.777 24.6738 192.897 24.1538 190.097 22.8938C187.047 21.5138 184.937 19.0338 182.207 17.5238C179.787 16.1838 177.267 14.9938 174.917 13.5238C174.327 13.1538 173.387 13.3338 172.597 13.2938C172.132 13.3143 171.667 13.2358 171.234 13.0634C170.802 12.891 170.411 12.6287 170.087 12.2938C169.838 11.9867 169.522 11.7398 169.164 11.5719C168.806 11.4039 168.415 11.3191 168.02 11.324C167.624 11.3288 167.235 11.423 166.881 11.5996C166.528 11.7763 166.218 12.0307 165.977 12.3438C165.678 12.6481 165.319 12.8869 164.923 13.0453C164.527 13.2036 164.103 13.2781 163.677 13.2638C161.741 13.4314 159.843 13.8934 158.047 14.6338C155.347 15.6338 152.917 16.4138 151.047 18.6338C150.991 18.6906 150.924 18.7351 150.85 18.7644C150.776 18.7937 150.696 18.8071 150.617 18.8038C147.207 18.4938 144.297 21.0338 140.797 20.4438C140.035 20.2441 139.233 20.2609 138.48 20.4923C137.728 20.7237 137.055 21.1606 136.537 21.7538C135.537 22.9138 128.777 22.3038 127.607 21.2038C127.253 20.7808 126.753 20.506 126.207 20.4338C122.977 20.3238 120.267 18.9738 117.427 17.4338C115.047 16.1638 112.587 15.0438 110.297 13.5538C109.607 13.1038 108.467 13.3038 107.527 13.2638C105.917 13.1838 104.207 13.5638 103.087 11.8138C102.737 11.2838 101.927 11.4138 101.307 11.4038C100.047 11.4038 98.7769 11.4938 97.5269 11.3538C93.0869 10.8638 89.9568 13.1938 87.0568 16.0538C86.2268 16.8738 85.5169 17.8238 84.6269 18.5638C84.0492 19.1473 83.3604 19.609 82.6012 19.9216C81.842 20.2342 81.0278 20.3914 80.2068 20.3838C78.4068 20.2638 76.3968 19.9138 75.0768 21.8738C74.8668 22.1938 74.0769 22.1938 73.5269 22.2238C72.0469 22.3038 70.7369 22.3038 69.5269 23.5838C68.9571 24.092 68.2203 24.3728 67.4568 24.3728C66.6934 24.3728 65.9566 24.092 65.3869 23.5838C64.1369 22.2538 62.8169 22.3038 61.3869 22.2738C59.9569 22.2438 58.3868 22.2038 56.9068 22.2138C56.3256 22.2982 55.7325 22.23 55.1856 22.0162C54.6386 21.8023 54.1566 21.45 53.7868 20.9938C52.7868 19.7138 51.0068 20.5838 49.6768 19.5938C47.7568 18.1538 46.6768 15.9938 44.9168 14.4638C44.1477 13.7212 43.1347 13.284 42.0668 13.2338C40.4768 13.1738 38.7068 13.6838 37.6168 11.8638C37.5457 11.7655 37.4539 11.6839 37.3478 11.6248C37.2417 11.5658 37.1239 11.5308 37.0028 11.5222C36.8817 11.5136 36.7602 11.5317 36.6469 11.5752C36.5335 11.6187 36.4311 11.6865 36.3468 11.7738C34.6868 13.9538 32.3468 13.2638 30.2368 13.1838C27.6868 13.0938 25.5968 13.5038 24.3368 15.9638C24.2442 16.2316 24.0776 16.4676 23.8563 16.6445C23.6351 16.8215 23.3683 16.9322 23.0868 16.9638C20.7468 17.0438 19.3269 19.1638 17.0269 19.5638C15.9473 19.9111 14.8445 20.1817 13.7268 20.3738C11.8923 20.3039 10.0775 20.7732 8.50686 21.7238C6.43686 23.0538 3.50678 22.4238 0.926784 21.9538C0.786573 21.8898 0.663088 21.7942 0.565944 21.6745C0.4688 21.5548 0.400692 21.4142 0.366847 21.2638C0.276847 18.5038 -0.563172 15.6938 1.09683 13.0638C1.41469 12.4768 1.9062 12.0022 2.50405 11.705C3.10191 11.4079 3.77688 11.3027 4.43679 11.4038C5.21679 11.4738 6.01678 11.3438 6.79678 11.4038C10.0968 11.7138 12.5568 9.80385 15.0868 8.20385C16.4068 7.49143 17.7771 6.87646 19.1868 6.36385C21.5068 5.36385 23.6169 3.12385 26.6269 3.73385C27.1978 3.91533 27.8124 3.90401 28.3762 3.70161C28.9401 3.49921 29.4217 3.11698 29.7469 2.61385C30.2269 1.86385 31.1268 1.96385 31.9068 1.95385C33.6368 1.95385 35.3668 1.95385 37.1068 1.95385L37.0668 1.93385Z" fill="#E9C82D"/>
</svg>
