<svg width="86" height="90" viewBox="0 0 86 90" fill="none" xmlns="http://www.w3.org/2000/svg">
<g clip-path="url(#clip0_21_676)">
<path d="M52.2198 29.25H36.6098C34.4722 29.25 32.4221 30.0992 30.9105 31.6107C29.399 33.1223 28.5498 35.1724 28.5498 37.31V52.92C28.5485 53.9798 28.7559 55.0294 29.1603 56.009C29.5646 56.9886 30.1579 57.879 30.9064 58.6293C31.6548 59.3796 32.5437 59.9751 33.5223 60.3819C34.5009 60.7887 35.55 60.9987 36.6098 61H52.2198C54.3566 60.9974 56.4052 60.1473 57.9162 58.6364C59.4271 57.1254 60.2772 55.0768 60.2798 52.94V37.31C60.2772 35.1732 59.4271 33.1246 57.9162 31.6136C56.4052 30.1027 54.3566 29.2526 52.2198 29.25ZM44.5698 54.74C42.6652 54.74 40.8033 54.1752 39.2197 53.1171C37.636 52.0589 36.4017 50.5549 35.6729 48.7952C34.944 47.0356 34.7533 45.0993 35.1248 43.2313C35.4964 41.3632 36.4136 39.6473 37.7604 38.3006C39.1072 36.9538 40.8231 36.0366 42.6911 35.665C44.5591 35.2935 46.4954 35.4842 48.2551 36.213C50.0147 36.9419 51.5187 38.1762 52.5769 39.7599C53.635 41.3435 54.1998 43.2054 54.1998 45.11C54.1998 47.664 53.1852 50.1135 51.3792 51.9194C49.5733 53.7254 47.1238 54.74 44.5698 54.74ZM54.7598 37.13C54.3069 37.13 53.8641 36.9957 53.4876 36.7441C53.111 36.4924 52.8175 36.1348 52.6441 35.7163C52.4708 35.2979 52.4255 34.8375 52.5138 34.3932C52.6022 33.949 52.8203 33.541 53.1405 33.2207C53.4608 32.9005 53.8688 32.6824 54.3131 32.594C54.7573 32.5056 55.2177 32.551 55.6362 32.7243C56.0546 32.8976 56.4122 33.1912 56.6639 33.5677C56.9155 33.9443 57.0498 34.3871 57.0498 34.84C57.0472 35.4465 56.8051 36.0275 56.3762 36.4564C55.9473 36.8853 55.3663 37.1274 54.7598 37.13Z" fill="white"/>
<path d="M44.41 16.9399C38.8361 16.9399 33.3874 18.5929 28.753 21.6898C24.1186 24.7867 20.5067 29.1884 18.3741 34.3382C16.2415 39.488 15.6841 45.1546 16.7722 50.6213C17.8603 56.0879 20.5452 61.1091 24.4873 65.0497C28.4293 68.9904 33.4514 71.6735 38.9185 72.7597C44.3855 73.8459 50.0519 73.2864 55.2009 71.152C60.35 69.0176 64.7504 65.4041 67.8457 60.7686C70.9409 56.1331 72.592 50.6838 72.59 45.1099C72.59 41.4098 71.861 37.7458 70.4447 34.3274C69.0284 30.909 66.9525 27.8032 64.3357 25.1872C61.7188 22.5713 58.6122 20.4965 55.1933 19.0814C51.7744 17.6663 48.1102 16.9386 44.41 16.9399ZM64 52.9199C63.9974 54.4643 63.6906 55.993 63.0972 57.4188C62.5037 58.8446 61.6353 60.1395 60.5414 61.2297C59.4476 62.3198 58.1497 63.1839 56.7219 63.7724C55.2941 64.361 53.7643 64.6626 52.22 64.6599H36.61C33.4972 64.6573 30.5126 63.4196 28.3115 61.2185C26.1104 59.0173 24.8726 56.0328 24.87 52.9199V37.3099C24.8726 34.1971 26.1104 31.2125 28.3115 29.0114C30.5126 26.8103 33.4972 25.5726 36.61 25.5699H52.22C53.7643 25.5673 55.2941 25.8689 56.7219 26.4575C58.1497 27.046 59.4476 27.9101 60.5414 29.0002C61.6353 30.0904 62.5037 31.3853 63.0972 32.8111C63.6906 34.2369 63.9974 35.7656 64 37.3099V52.9199Z" fill="white"/>
<path d="M44.5699 51.2799C47.9775 51.2799 50.7399 48.5175 50.7399 45.1099C50.7399 41.7023 47.9775 38.9399 44.5699 38.9399C41.1623 38.9399 38.3999 41.7023 38.3999 45.1099C38.3999 48.5175 41.1623 51.2799 44.5699 51.2799Z" fill="white"/>
<path d="M84.9399 52.38C84.9399 52.16 85.0099 51.95 85.0399 51.73C84.9999 51.93 84.9999 52.15 84.9399 52.38Z" fill="white"/>
<path d="M84.8301 53.1299C84.8301 52.8699 84.9101 52.6199 84.9401 52.3799C84.9001 52.6299 84.8601 52.8799 84.8301 53.1299Z" fill="white"/>
<path d="M85.11 58.94C85.11 58.61 85.27 58.01 85.46 56.78C84.6837 59.5407 83.6421 62.2198 82.35 64.78C82.0195 65.4698 81.6455 66.1378 81.23 66.78L80.05 68.7C79.22 70 78.33 71 77.57 72L77.13 71.65L79.48 68.37L80.65 66.49C81.0703 65.8471 81.451 65.1792 81.79 64.49C83.1575 61.9969 84.2089 59.3431 84.92 56.59L84.2 56.39C84.11 56.39 84.2 55.77 84.42 54.9L84.77 53.42L84.83 53.09C84.83 53.32 84.74 53.57 84.67 53.82C84.47 54.61 84.24 55.47 84.02 56.34C83.8136 57.1817 83.5462 58.0072 83.22 58.81C82.94 59.58 82.69 60.28 82.48 60.81L81.79 60.52C81.71 60.52 81.86 59.92 82.14 59.09C82.5264 58.1085 82.8602 57.1071 83.14 56.09C82.79 55.98 82.99 53.68 82.25 55.84C81.9548 56.934 81.5941 58.0093 81.17 59.06C80.96 59.59 80.8 60.14 80.56 60.65L79.82 62.19C80.2934 61.2234 80.688 60.2201 81 59.19C81.29 58.24 81.57 57.36 81.78 56.54C82.0643 55.1574 82.2581 53.7578 82.36 52.35C82.36 50.09 82.17 48.97 81.89 48.95C81.8533 49.6774 81.7084 50.3953 81.46 51.08C81.38 51.34 81.29 51.6 81.22 51.93L81 53.26L81.1 52.66V52.06C81.1 51.65 81.1 51.26 81.16 50.86C81.16 50.08 81.27 49.34 81.25 48.65C81.16 47.27 81.07 46.14 80.97 45.48C80.87 44.82 80.71 44.55 80.61 45.11C80.3836 46.3421 80.2433 47.5884 80.19 48.84C79.148 57.9845 74.6601 66.3881 67.64 72.34C64.1605 75.2931 60.1485 77.5537 55.82 79C51.4789 80.4365 46.9048 81.0371 42.34 80.77C35.4453 80.3606 28.8144 77.9737 23.2406 73.8949C17.6667 69.816 13.3859 64.2179 10.91 57.77C9.2758 53.4669 8.47491 48.8923 8.55001 44.29C8.71248 34.9463 12.502 26.0319 19.1175 19.4313C25.733 12.8307 34.6559 9.06136 44 8.92C53.3435 8.77832 62.3829 12.2394 69.2424 18.585C76.102 24.9307 80.2551 33.6737 80.84 43C80.8938 43.708 80.9873 44.4125 81.12 45.11C81.19 45.55 81.26 45.69 81.35 45.69C81.44 45.69 81.7 45.1 81.88 45.1C81.7099 37.1244 79.2107 29.3728 74.69 22.8C73.38 21.04 76.61 24.12 75.6 22.13C73.8227 19.7246 71.7798 17.5274 69.51 15.58C68.18 13.63 71.94 16.27 70.6 14.3C70.0035 13.5395 69.3033 12.8663 68.52 12.3C68.0099 11.8606 67.4758 11.4499 66.92 11.07L65.07 10C63.8759 9.26321 62.6405 8.59545 61.37 8C60.27 7.39 59.29 7 58.78 6.75C55.5 5.35 56.64 5.62 59.48 6.56C59.84 6.68 60.22 6.8 60.62 6.95L61.84 7.5C62.67 7.9 63.59 8.28 64.48 8.76L67.1 10.3C67.9117 10.8263 68.6961 11.3937 69.45 12C68.59 11.13 69.56 11.85 70.77 12.75C71.98 13.65 73.23 14.97 73.36 14.83C73.49 14.69 73.89 14.29 73.2 13.2C72.6691 12.3427 72.0193 11.5649 71.27 10.89C70.75 10.41 70.14 9.89 69.4 9.21C68.5389 8.49242 67.6374 7.82467 66.7 7.21C64.61 5.72 67.06 6.55 67.26 6.21L66 5.48C65.57 5.25 65.12 5.05 64.68 4.83L62 3.55L59.22 2.55L57.84 2L56.4 1.64L53.5 0.9L50.5 0.45L49 0.23L47.54 0.14L44.54 0C43.54 0 42.54 0.09 41.54 0.14L40 0.22C39.5 0.22 39 0.36 38.5 0.43L35.5 0.9C34.5 1.12 33.5 1.4 32.5 1.65L31.07 2L29.64 2.52C28.69 2.87 27.73 3.22 26.79 3.59C24.9327 4.41598 23.1292 5.35784 21.39 6.41C14.4462 10.6295 8.78073 16.6579 5.00001 23.85C1.33768 30.8681 -0.355593 38.747 0.100005 46.65C0.473334 53.3274 2.27379 59.8472 5.38001 65.77C8.69191 71.9425 13.3837 77.2673 19.09 81.33C24.8112 85.3817 31.431 87.9829 38.38 88.91C44.9526 89.8348 51.6509 89.1801 57.92 87C62.2382 85.5336 66.336 83.4847 70.1 80.91C71.1 80.2 72.04 79.55 72.88 78.79C73.72 78.03 74.5 77.29 75.23 76.58C75.8622 75.9027 76.4533 75.188 77 74.44C77.4685 73.86 77.8867 73.2411 78.25 72.59C77.46 73.59 76.58 74.47 75.74 75.41C75.3211 75.8773 74.8736 76.3181 74.4 76.73L73 78C73.65 77.31 74.31 76.64 75 76L76.85 73.87L77.79 72.87C78.08 72.5 78.35 72.12 78.64 71.75L80.34 69.5L81.85 67.12L82.6 65.92L83.23 64.66L84.48 62C84.8 61.12 85.12 60.23 85.42 59.34C85.24 59.32 85.11 59.27 85.11 58.94Z" fill="white"/>
</g>
<defs>
<clipPath id="clip0_21_676">
<rect width="85.46" height="89.3" fill="white"/>
</clipPath>
</defs>
</svg>
