<svg width="86" height="90" viewBox="0 0 86 90" fill="none" xmlns="http://www.w3.org/2000/svg">
<g clip-path="url(#clip0_21_685)">
<path d="M84.9399 52.38C84.9399 52.16 85.0099 51.95 85.0399 51.73C84.9999 51.93 84.9999 52.15 84.9399 52.38Z" fill="white"/>
<path d="M84.8301 53.1299C84.8301 52.8699 84.9101 52.6199 84.9401 52.3799C84.9001 52.6299 84.8601 52.8799 84.8301 53.1299Z" fill="white"/>
<path d="M85.11 58.94C85.11 58.61 85.27 58.01 85.46 56.78C84.6837 59.5407 83.6421 62.2198 82.35 64.78C82.0195 65.4698 81.6455 66.1378 81.23 66.78L80.05 68.7C79.22 70 78.33 71 77.57 72L77.13 71.65L79.48 68.37L80.65 66.49C81.0703 65.8471 81.451 65.1792 81.79 64.49C83.1575 61.9969 84.2089 59.3431 84.92 56.59L84.2 56.39C84.11 56.39 84.2 55.77 84.42 54.9L84.77 53.42L84.83 53.09C84.83 53.32 84.74 53.57 84.67 53.82C84.47 54.61 84.24 55.47 84.02 56.34C83.8136 57.1817 83.5462 58.0072 83.22 58.81C82.94 59.58 82.69 60.28 82.48 60.81L81.79 60.52C81.71 60.52 81.86 59.92 82.14 59.09C82.5264 58.1085 82.8602 57.1071 83.14 56.09C82.79 55.98 82.99 53.68 82.25 55.84C81.9548 56.934 81.5941 58.0093 81.17 59.06C80.96 59.59 80.8 60.14 80.56 60.65L79.82 62.19C80.2934 61.2234 80.688 60.2201 81 59.19C81.29 58.24 81.57 57.36 81.78 56.54C82.0643 55.1574 82.2581 53.7578 82.36 52.35C82.36 50.09 82.17 48.97 81.89 48.95C81.8533 49.6774 81.7084 50.3953 81.46 51.08C81.38 51.34 81.29 51.6 81.22 51.93L81 53.26L81.1 52.66V52.06C81.1 51.65 81.1 51.26 81.16 50.86C81.16 50.08 81.27 49.34 81.25 48.65C81.16 47.27 81.07 46.14 80.97 45.48C80.87 44.82 80.71 44.55 80.61 45.11C80.3836 46.3421 80.2433 47.5884 80.19 48.84C79.148 57.9845 74.6601 66.3881 67.64 72.34C64.1605 75.2931 60.1485 77.5537 55.82 79C51.4789 80.4365 46.9048 81.0371 42.34 80.77C35.4453 80.3606 28.8144 77.9737 23.2406 73.8949C17.6667 69.816 13.3859 64.2179 10.91 57.77C9.2758 53.4669 8.47491 48.8923 8.55001 44.29C8.71248 34.9463 12.502 26.0319 19.1175 19.4313C25.733 12.8307 34.6559 9.06136 44 8.92C53.3435 8.77832 62.3829 12.2394 69.2424 18.585C76.102 24.9307 80.2551 33.6737 80.84 43C80.8938 43.708 80.9873 44.4125 81.12 45.11C81.19 45.55 81.26 45.69 81.35 45.69C81.44 45.69 81.7 45.1 81.88 45.1C81.7099 37.1244 79.2107 29.3728 74.69 22.8C73.38 21.04 76.61 24.12 75.6 22.13C73.8227 19.7246 71.7798 17.5274 69.51 15.58C68.18 13.63 71.94 16.27 70.6 14.3C70.0035 13.5395 69.3033 12.8663 68.52 12.3C68.0099 11.8606 67.4758 11.4499 66.92 11.07L65.07 10C63.8759 9.26321 62.6405 8.59545 61.37 8C60.27 7.39 59.29 7 58.78 6.75C55.5 5.35 56.64 5.62 59.48 6.56C59.84 6.68 60.22 6.8 60.62 6.95L61.84 7.5C62.67 7.9 63.59 8.28 64.48 8.76L67.1 10.3C67.9117 10.8263 68.6961 11.3937 69.45 12C68.59 11.13 69.56 11.85 70.77 12.75C71.98 13.65 73.23 14.97 73.36 14.83C73.49 14.69 73.89 14.29 73.2 13.2C72.6691 12.3427 72.0193 11.5649 71.27 10.89C70.75 10.41 70.14 9.89 69.4 9.21C68.5389 8.49242 67.6374 7.82467 66.7 7.21C64.61 5.72 67.06 6.55 67.26 6.21L66 5.48C65.57 5.25 65.12 5.05 64.68 4.83L62 3.55L59.22 2.55L57.84 2L56.4 1.64L53.5 0.9L50.5 0.45L49 0.23L47.54 0.14L44.54 0C43.54 0 42.54 0.09 41.54 0.14L40 0.22C39.5 0.22 39 0.36 38.5 0.43L35.5 0.9C34.5 1.12 33.5 1.4 32.5 1.65L31.07 2L29.64 2.52C28.69 2.87 27.73 3.22 26.79 3.59C24.9327 4.41598 23.1292 5.35784 21.39 6.41C14.4462 10.6295 8.78073 16.6579 5.00001 23.85C1.33768 30.8681 -0.355593 38.747 0.100005 46.65C0.473334 53.3274 2.27379 59.8472 5.38001 65.77C8.69191 71.9425 13.3837 77.2673 19.09 81.33C24.8112 85.3817 31.431 87.9829 38.38 88.91C44.9526 89.8348 51.6509 89.1801 57.92 87C62.2382 85.5336 66.336 83.4847 70.1 80.91C71.1 80.2 72.04 79.55 72.88 78.79C73.72 78.03 74.5 77.29 75.23 76.58C75.8622 75.9027 76.4533 75.188 77 74.44C77.4685 73.86 77.8867 73.2411 78.25 72.59C77.46 73.59 76.58 74.47 75.74 75.41C75.3211 75.8773 74.8736 76.3181 74.4 76.73L73 78C73.65 77.31 74.31 76.64 75 76L76.85 73.87L77.79 72.87C78.08 72.5 78.35 72.12 78.64 71.75L80.34 69.5L81.85 67.12L82.6 65.92L83.23 64.66L84.48 62C84.8 61.12 85.12 60.23 85.42 59.34C85.24 59.32 85.11 59.27 85.11 58.94Z" fill="white"/>
<path d="M44.4102 16.9399C38.8817 16.9376 33.4748 18.5626 28.8636 21.6125C24.2525 24.6623 20.6411 29.002 18.4796 34.0904C16.3182 39.1789 15.7024 44.791 16.709 50.2271C17.7156 55.6632 20.3001 60.6827 24.1402 64.6599C25.0202 61.4332 25.9035 58.1966 26.7902 54.9499C26.8203 54.8559 26.8306 54.7567 26.8202 54.6586C26.8099 54.5604 26.7792 54.4655 26.7302 54.3799C25.0645 51.3785 24.1863 48.004 24.1775 44.5713C24.1688 41.1387 25.0298 37.7598 26.6802 34.7499C28.8762 30.7862 32.3219 27.6605 36.4802 25.8599C38.354 25.0524 40.3403 24.5365 42.3702 24.3299C44.8063 24.0732 47.2687 24.2561 49.6402 24.8699C53.6612 25.9434 57.2557 28.2257 59.9376 31.4083C62.6195 34.5909 64.2595 38.5202 64.6358 42.6651C65.0121 46.8099 64.1066 50.9704 62.0417 54.5839C59.9768 58.1975 56.8522 61.0898 53.0902 62.8699C51.042 63.8361 48.8436 64.4449 46.5902 64.6699C45.8902 64.7399 45.1902 64.7799 44.4802 64.7799C41.4479 64.7716 38.4556 64.0884 35.7202 62.7799C35.4325 62.5769 35.0977 62.451 34.7475 62.4143C34.3974 62.3775 34.0437 62.4311 33.7202 62.5699C30.6502 63.4099 27.5702 64.1999 24.4902 64.9999C27.7684 68.2713 31.8026 70.6839 36.2357 72.0243C40.6687 73.3647 45.3639 73.5914 49.9055 72.6844C54.4471 71.7774 58.695 69.7646 62.2731 66.8243C65.8513 63.884 68.6493 60.1069 70.4195 55.8272C72.1897 51.5476 72.8775 46.8976 72.4219 42.2888C71.9663 37.68 70.3815 33.2546 67.8076 29.4044C65.2338 25.5542 61.7504 22.3979 57.6658 20.2151C53.5812 18.0323 49.0214 16.8902 44.3902 16.8899L44.4102 16.9399Z" fill="white"/>
<path d="M29.0502 60.0001C28.9802 60.2701 28.9902 60.2901 29.2502 60.2201C31.1402 59.7301 33.0302 59.2201 34.9102 58.7301C35.034 58.6929 35.1645 58.6835 35.2924 58.7025C35.4203 58.7215 35.5425 58.7685 35.6502 58.8401C39.0562 60.9374 43.0954 61.7594 47.0502 61.1601C49.5709 60.7829 51.9683 59.8205 54.0502 58.3501C56.1686 56.8938 57.921 54.9668 59.1702 52.7201C60.604 50.1338 61.3349 47.2169 61.2902 44.2601C61.2878 43.5024 61.2209 42.7464 61.0902 42.0001C60.6677 39.2405 59.5654 36.6294 57.8825 34.4019C56.1997 32.1745 53.9892 30.4006 51.4502 29.2401C49.5193 28.3519 47.4336 27.8492 45.3102 27.7601C42.8829 27.6398 40.4584 28.0478 38.2042 28.9561C35.95 29.8643 33.9199 31.2511 32.254 33.0206C30.5882 34.7901 29.3263 36.9001 28.5556 39.205C27.7849 41.5098 27.5237 43.9545 27.7902 46.3701C28.0232 48.8639 28.8532 51.2649 30.2102 53.3701C30.367 53.6078 30.4674 53.8783 30.5038 54.1608C30.5402 54.4433 30.5116 54.7303 30.4202 55.0001C29.9302 56.6701 29.5002 58.3201 29.0502 60.0001ZM35.6102 36.1001L35.8502 35.8501C36.0341 35.6121 36.2731 35.4222 36.5465 35.2968C36.82 35.1714 37.1197 35.1142 37.4202 35.1301H37.8202C37.9533 35.1401 38.087 35.1401 38.2202 35.1301C38.4909 35.0976 38.7642 35.165 38.9888 35.3196C39.2135 35.4743 39.3739 35.7056 39.4402 35.9701C39.6102 36.3801 39.7802 36.8001 39.9602 37.2101C40.3202 38.0901 40.6702 38.9601 41.0402 39.8301C41.1176 39.9854 41.158 40.1565 41.158 40.3301C41.158 40.5036 41.1176 40.6748 41.0402 40.8301C40.6886 41.4522 40.2547 42.0241 39.7502 42.5301C39.4502 42.8801 39.4102 43.0701 39.6402 43.4601C40.3966 44.7808 41.3549 45.9752 42.4802 47.0001C43.6798 48.0478 45.0495 48.8831 46.5302 49.4701C46.6978 49.5657 46.8962 49.5921 47.083 49.5435C47.2699 49.4949 47.4303 49.3753 47.5302 49.2101C48.0602 48.5801 48.6002 47.9601 49.0802 47.3001C49.124 47.2127 49.1855 47.1354 49.2606 47.0729C49.3358 47.0104 49.423 46.9641 49.5169 46.9369C49.6107 46.9096 49.7092 46.9021 49.8062 46.9147C49.9031 46.9273 49.9964 46.9598 50.0802 47.0101C50.7635 47.2679 51.4312 47.565 52.0802 47.9001C52.7902 48.2401 53.5002 48.6101 54.2202 48.9001C54.4189 48.9721 54.5859 49.1118 54.6919 49.2947C54.798 49.4775 54.8363 49.6918 54.8002 49.9001C54.8238 50.8716 54.4972 51.8193 53.8802 52.5701C52.9386 53.5564 51.6689 54.1646 50.3102 54.2801C48.9368 54.3157 47.5721 54.053 46.3102 53.5101C44.2988 52.8051 42.4319 51.7412 40.8002 50.3701C39.6245 49.3928 38.5492 48.3007 37.5902 47.1101C36.7209 46.0785 35.9414 44.9745 35.2602 43.8101C34.4829 42.5433 34.0967 41.0753 34.1502 39.5901C34.2114 38.2913 34.7283 37.0556 35.6102 36.1001Z" fill="white"/>
</g>
<defs>
<clipPath id="clip0_21_685">
<rect width="85.46" height="89.3" fill="white"/>
</clipPath>
</defs>
</svg>
