<svg width="298" height="126" viewBox="0 0 298 126" fill="none" xmlns="http://www.w3.org/2000/svg">
<path d="M12.5884 13.3421C12.0084 28.8321 10.4184 46.9821 10.4184 46.9821L9.89838 46.3121L9.51838 48.1821L8.61838 48.4121L7.61838 51.1721L5.47838 52.4821L4.20838 54.2021L3.60838 53.6721L3.00838 55.6721C3.00838 55.6721 2.33838 56.5021 2.00838 56.5021C1.48838 53.3521 1.70838 11.2321 0.00838272 2.32211C-0.0616173 2.02211 0.308383 1.32211 1.05838 1.20211C4.35838 0.402107 13.0084 -0.497893 12.5884 13.3421Z" fill="white"/>
<path d="M64.8184 45.2924L64.0684 47.9824L63.3184 48.1325L63.0084 49.9824L62.4184 52.2225L61.4184 52.3724L61.2684 54.0924C60.8719 54.0101 60.4604 54.0377 60.0784 54.1724C59.8484 54.2424 59.9284 54.9224 59.6984 54.9924C55.6984 47.6624 52.8884 34.4924 51.3184 22.8924C48.8084 30.9824 45.0084 41.7024 42.5984 48.1424C42.0684 49.7124 35.0384 52.2524 34.3584 45.5224C32.5684 41.4024 29.6484 33.9924 26.5084 26.5224C25.3084 37.7524 23.8884 46.2824 23.8884 46.2824L22.8884 46.1325L20.0384 51.1325L18.0984 51.7324L17.4984 52.9324C17.4984 52.9324 16.2984 51.9324 15.6284 52.2524C14.9584 52.5724 14.5784 54.2024 14.1284 54.2024C15.0284 44.9924 16.5984 14.6924 15.5484 3.54245C15.5484 3.46245 15.4784 3.39245 15.3984 3.31245C15.4549 3.30683 15.5078 3.28214 15.5484 3.24245C15.5185 2.48315 15.4282 1.72743 15.2784 0.982449C17.24 0.368524 19.3258 0.265267 21.3384 0.682449C25.3884 -0.127551 29.7984 0.542449 30.8484 3.98245C33.8484 14.3024 36.5284 23.9824 38.1084 29.9824C41.4796 21.0546 45.3012 12.3034 49.5584 3.76245C49.4969 3.21804 49.4702 2.67026 49.4784 2.12245C52.4784 0.25245 59.9584 -0.797551 61.6784 2.64245C62.6784 4.64245 62.3484 7.50245 62.4284 14.0924C62.6075 24.5306 63.4056 34.9489 64.8184 45.2924Z" fill="white"/>
<path d="M84.7983 52.4023C82.0983 52.4023 77.2383 52.7823 72.5983 51.5823C72.2983 52.1023 71.9983 52.5823 71.7783 53.0023C71.3983 53.6023 70.8783 52.9323 70.6583 52.1823C70.3583 53.7523 70.5083 54.1823 69.9783 54.5023C69.6083 54.7223 69.1583 55.8423 68.8583 55.9223C68.6508 53.9592 68.5506 51.9863 68.5583 50.0123C64.8183 47.9823 61.8283 44.3923 61.0083 37.8823C63.3065 39.1594 65.7794 40.0926 68.3483 40.6523C68.2683 36.8423 68.1983 32.7223 68.0483 28.6523C66.8483 28.6523 65.5783 28.7323 64.2283 28.8023C64.2283 28.8023 60.2283 26.4123 62.7283 20.7223C63.305 20.3987 63.941 20.1946 64.5983 20.1223L64.5283 19.3023C64.5283 19.3023 65.7983 19.0023 67.7483 18.4723C67.5983 15.8523 67.4483 13.3923 67.2983 11.2223C66.709 11.265 66.1183 11.1619 65.5783 10.9223C64.3783 10.0223 63.2583 6.05231 64.2983 4.26231L66.4783 3.88231C66.432 3.567 66.3304 3.26234 66.1783 2.98231C66.1783 2.98231 71.6383 0.662308 74.8583 2.83231C81.7383 2.09231 90.4183 1.64231 95.5083 3.13231C97.9783 4.93231 98.5783 9.49231 98.5783 13.1323C98.5783 13.1323 97.8983 16.5723 92.0683 19.7123C100.148 21.7123 106.878 26.2223 107.408 35.7123C108.068 47.5423 97.5183 52.3323 84.7983 52.4023ZM77.3183 28.5323C77.0883 34.5923 76.6383 38.8623 76.3183 41.6323C83.4983 41.8523 91.6583 40.4323 98.1683 35.7123C98.1183 35.7123 99.2383 29.0523 77.3183 28.5323ZM77.3883 15.5323C81.7283 14.0323 86.0683 12.2423 88.3183 10.3723C87.4183 9.84231 82.3983 10.2223 77.3183 10.6723C77.3183 12.3723 77.3883 13.9823 77.3883 15.5123V15.5323Z" fill="white"/>
<path d="M140.008 50.8323C139.858 51.3523 139.188 53.9023 139.188 53.9023L138.508 53.5223C130.508 52.4023 115.919 54.1223 109.699 56.1423C104.469 57.8623 102.968 50.6823 105.138 45.8223C112.998 41.2523 136.638 43.2723 138.958 47.3123C139.108 47.4623 138.589 47.2423 138.589 47.2423L139.589 48.5123L138.908 48.6623C138.908 48.6623 140.168 50.3123 140.008 50.8323ZM104.848 35.0423C109.281 24.4957 112.251 13.393 113.678 2.04231C119.818 1.14231 123.259 1.37231 124.979 2.57231C127.899 2.49231 130.668 3.46231 131.188 6.91231C132.922 18.5259 135.882 29.923 140.018 40.9123C139.948 40.9123 138.818 39.7123 138.818 39.7123L138.298 40.5323L137.479 40.0123L136.798 39.6423L135.979 40.3123C135.979 40.3123 135.679 39.6423 135.309 38.9623C135.079 39.5623 134.109 41.8823 134.109 41.8823L133.438 41.4323C125.728 39.2623 116.968 40.2323 110.538 41.4323C107.098 42.0323 105.668 39.3423 105.748 36.1223C105.518 35.5723 105.298 35.0423 104.848 35.0423ZM126.699 30.7823C125.009 26.9823 123.558 23.1423 122.208 19.5523C120.858 22.9923 119.369 26.2123 117.799 29.2823C120.811 29.4587 123.795 29.9616 126.699 30.7823Z" fill="white"/>
<path d="M179.008 2.79225C178.708 5.56225 176.308 10.5722 169.798 12.6722C165.988 12.8222 162.468 13.0422 159.318 13.1922C158.878 28.3122 156.778 45.5222 156.778 45.5222L155.128 49.1822L154.538 49.1122L153.338 51.8022C153.338 51.8022 152.958 51.2022 152.438 51.8822C152.161 52.381 151.937 52.9072 151.768 53.4522H151.168L150.168 54.9522L149.488 53.0722C149.488 53.0722 148.818 55.6222 148.488 55.6922C148.118 53.3722 148.188 29.5022 147.488 13.7922C140.748 14.1622 136.938 14.3922 135.658 14.4622C129.378 14.6122 129.228 2.34225 133.268 1.74225C137.712 1.22479 142.185 1.00097 146.658 1.07225C146.887 0.812661 147.17 0.607623 147.488 0.472246C149.358 -0.0477541 152.798 -0.527754 155.488 1.29225C163.008 1.59225 171.008 2.19225 179.008 2.79225Z" fill="white"/>
<path d="M182.448 13.3421C181.848 28.8321 180.278 47.0121 180.278 47.0121L179.748 46.3421L179.378 48.2121L178.478 48.4421L177.478 51.2021L175.308 52.4821L174.038 54.2021L173.438 53.6721L172.838 55.6721C172.838 55.6721 172.168 56.5021 171.838 56.5021C171.308 53.3521 171.538 11.2321 169.838 2.32211C169.768 2.02211 170.138 1.32211 170.838 1.20211C174.208 0.402107 182.898 -0.497893 182.448 13.3421Z" fill="white"/>
<path d="M206.388 52.4023C203.698 52.4023 198.828 52.7823 194.188 51.5823C193.888 52.1023 193.598 52.5823 193.368 53.0023C193.138 53.4223 192.468 52.9323 192.248 52.1823C191.948 53.7523 192.098 54.1823 191.568 54.5023C191.198 54.7223 190.748 55.8423 190.448 55.9223C190.241 53.9592 190.14 51.9863 190.148 50.0123C186.408 48.0123 183.418 44.3923 182.598 37.8823C184.893 39.1595 187.362 40.0928 189.928 40.6523C189.848 36.8423 189.778 32.7223 189.628 28.6523C188.428 28.6523 187.158 28.7323 185.808 28.8023C185.808 28.8023 181.808 26.4123 184.318 20.7223C184.895 20.3987 185.531 20.1946 186.188 20.1223L186.108 19.3023C186.108 19.3023 187.378 19.0023 189.328 18.4723C189.178 15.8523 189.028 13.3923 188.878 11.2223C188.289 11.265 187.698 11.1619 187.158 10.9223C185.958 10.0223 184.838 6.05231 185.888 4.26231L188.058 3.88231C188.012 3.567 187.91 3.26234 187.758 2.98231C187.758 2.98231 193.218 0.662308 196.438 2.83231C203.318 2.09231 211.998 1.64231 217.088 3.13231C219.558 4.93231 220.158 9.49231 220.158 13.1323C220.158 13.1323 219.488 16.5723 213.648 19.7123C221.728 21.7123 228.468 26.2223 228.988 35.7123C229.658 47.5423 219.108 52.3323 206.388 52.4023ZM198.908 28.5323C198.678 34.5923 198.238 38.8623 197.858 41.6323C205.038 41.8523 213.198 40.4323 219.708 35.7123C219.708 35.7123 220.828 29.0523 198.908 28.5323ZM198.978 15.5323C203.318 14.0323 207.658 12.2423 209.908 10.3723C209.008 9.84231 203.998 10.2223 198.908 10.6723C198.908 12.3723 199.008 13.9823 199.008 15.5123L198.978 15.5323Z" fill="white"/>
<path d="M256.448 49.1824C256.228 49.7824 255.548 52.2524 255.548 52.2524L254.878 51.9524C246.948 50.8324 238.418 52.9824 232.198 54.9824C226.968 56.6324 225.548 49.4424 227.638 44.6524L228.538 44.2024C228.608 30.5124 228.838 8.06236 227.718 1.70236C227.638 1.40236 228.008 0.702357 228.718 0.502357C232.088 -0.317643 240.918 -1.13764 240.098 12.5024C239.418 24.6224 238.098 36.6724 237.548 41.9824C245.258 41.3124 253.788 42.8824 255.358 45.6524C255.438 45.8024 254.988 45.5824 254.988 45.5824L256.008 46.9824L255.338 47.1324C255.338 47.1324 256.598 48.7424 256.448 49.1824Z" fill="white"/>
<path d="M297.158 35.1225C297.158 35.6425 295.728 36.9925 295.728 36.9925L295.358 37.8825L292.518 39.2325L294.608 39.4625C293.442 39.9222 292.337 40.5233 291.318 41.2525C290.048 42.2525 289.668 43.2525 288.698 43.6525C287.948 43.6525 272.088 47.1625 257.048 54.5025C254.728 55.6225 250.458 45.8225 254.198 43.8725C254.7 43.595 255.23 43.3705 255.778 43.2025C255.778 30.4025 256.148 7.88248 254.778 3.09248C256.66 2.37047 258.676 2.06347 260.688 2.19248C268.628 1.19248 285.758 1.52248 290.628 1.59248C290.531 2.25448 290.504 2.92486 290.548 3.59248C289.684 3.99837 288.899 4.55356 288.228 5.23248C288.008 5.46248 286.508 6.51248 286.508 6.51248L288.008 6.58248L285.538 7.85248L285.458 8.75248C285.458 8.75248 282.458 10.0225 282.018 10.1725C281.648 10.1725 274.018 11.4525 267.428 12.4925C267.428 13.0925 267.348 13.6925 267.348 14.2925C267.278 16.2325 267.128 18.0325 266.978 19.8325C273.208 19.0565 279.48 18.6558 285.758 18.6325C285.637 19.1826 285.435 19.7117 285.158 20.2025L284.858 22.0025L282.538 23.2725L283.538 23.3425L281.068 24.9125L281.138 25.6625L278.448 26.3425L277.928 27.2325C277.928 27.2325 275.228 28.5125 274.178 28.8825C273.728 28.8825 269.618 30.0825 265.878 30.9825C265.498 34.9825 265.048 37.9825 264.758 39.8825C274.858 36.5425 288.548 33.4725 297.158 35.1225Z" fill="white"/>
<path d="M119.598 72.2421C119.298 75.0121 116.908 80.0221 110.398 82.1121C106.578 82.2621 103.068 82.4921 99.9184 82.6421C99.4684 97.7521 97.3784 114.982 97.3784 114.982L95.7284 118.652L95.1284 118.582L93.9384 121.272C93.9384 121.272 93.5584 120.672 93.0384 121.342C92.7561 121.843 92.5282 122.373 92.3584 122.922H91.7684L90.7684 124.412L90.0984 122.542C90.0984 122.542 89.4284 125.092 89.0984 125.162C88.7184 122.842 88.7984 98.9721 88.0984 83.2621C81.3684 83.6321 77.5484 83.8621 76.2784 83.9321C69.9984 84.0821 69.8484 71.8121 73.8884 71.2121C78.3321 70.6943 82.8052 70.4705 87.2784 70.5421C87.5049 70.2849 87.7847 70.0802 88.0984 69.9421C89.9784 69.4121 93.4184 68.9421 96.0984 70.7621C103.588 71.0421 111.598 71.6421 119.598 72.2421Z" fill="white"/>
<path d="M159.488 123.792C141.678 122.972 137.928 106.132 137.258 96.3322C135.168 103.442 130.378 108.452 124.018 108.332C114.208 108.182 108.598 95.3922 108.598 88.8822C108.598 78.4022 114.138 71.5922 114.958 71.2222C118.108 69.8022 122.218 73.3122 122.518 74.8122V74.8922C122.738 74.8122 122.968 74.6622 122.888 74.4422C122.808 74.2222 122.368 74.0622 122.368 73.9122C122.433 73.6883 122.547 73.482 122.703 73.3087C122.859 73.1355 123.052 72.9999 123.268 72.9122C126.638 71.4122 135.758 73.7322 137.928 83.6822C138.758 78.8222 139.928 74.4822 139.928 74.4822C139.928 74.4822 139.328 72.4822 139.778 72.1622C141.878 70.3622 152.128 70.5122 152.048 77.1622C152.048 79.1122 145.048 104.852 153.918 116.742C169.918 111.282 165.668 76.0422 158.258 71.0222L158.788 70.3522C159.213 70.339 159.638 70.3658 160.058 70.4322C160.128 70.5022 165.368 74.1722 166.868 78.1322C165.448 73.2722 161.108 70.2822 161.258 70.2822C180.888 74.5622 181.258 124.842 159.488 123.792ZM114.888 123.052C121.098 121.052 130.528 118.932 138.528 120.052L139.208 120.432C139.208 120.432 139.878 117.882 140.028 117.362C140.178 116.842 138.978 115.192 138.978 115.192L139.578 115.042L138.578 113.842C138.578 113.842 139.028 113.992 138.948 113.842C136.628 109.842 118.148 108.152 110.288 112.722C108.148 117.582 109.648 124.772 114.888 123.052ZM129.398 85.5622C129.398 74.5622 122.588 75.0122 122.588 75.0122C122.668 75.6022 122.518 76.5022 121.768 76.5822C119.776 79.5747 118.708 83.0873 118.698 86.6822C118.698 95.1322 123.038 97.9022 123.868 97.9822C125.288 98.1322 129.398 94.2422 129.398 85.5622Z" fill="white"/>
<path d="M207.008 104.792C209.848 109.952 211.128 116.312 210.078 120.882C210.365 116.769 209.455 112.66 207.458 109.052C207.458 109.052 210.298 118.632 209.328 121.772C209.196 121.629 209.073 121.479 208.958 121.322C208.958 121.322 208.058 122.822 207.608 122.902C207.158 122.982 205.608 123.342 205.608 123.342L204.938 122.602C203.438 116.762 199.998 111.522 196.708 107.332C194.501 107.636 192.276 107.786 190.048 107.782H189.598C189.298 112.422 189.078 115.492 189.078 115.492C189.078 115.492 188.548 116.392 187.798 117.582C187.358 118.262 186.308 120.582 186.308 120.582C185.756 120.786 185.266 121.131 184.888 121.582C184.661 122.071 184.461 122.572 184.288 123.082L183.688 123.002L182.788 124.422C182.788 124.422 182.268 124.052 182.118 124.122C181.738 124.272 181.518 125.122 181.218 125.122C180.988 123.842 180.768 115.122 180.468 105.122C177.823 103.465 175.899 100.874 175.078 97.8623C174.799 96.8645 174.697 95.8253 174.778 94.7923C175.158 96.7923 176.278 99.5823 177.028 100.252C175.608 97.4123 175.158 94.6423 175.528 92.9923C175.908 94.1223 177.628 95.4623 180.248 96.5123C180.018 91.5723 179.798 86.7123 179.568 82.6723C178.078 82.8923 176.568 83.1923 175.008 83.5723C172.608 82.6723 170.288 76.3123 172.908 73.9123C175.528 71.5123 217.208 61.9123 216.988 90.7523C216.948 98.2023 212.458 102.392 207.008 104.792ZM190.688 81.3723C190.758 82.1123 190.758 83.0123 190.758 83.9823C190.688 88.7023 190.458 93.7123 190.158 98.3523C199.218 98.2823 210.818 93.5623 211.158 88.6223C211.488 84.4323 204.008 80.8423 190.688 81.3723Z" fill="white"/>
</svg>
