<svg xmlns="http://www.w3.org/2000/svg" viewBox="0 0 297.15 125.16"><g id="Capa_2" data-name="Capa 2"><g id="Capa_1-2" data-name="Capa 1"><path d="M12.58,13.36C12,28.85,10.41,47,10.41,47l-.52-.67-.38,1.87-.9.23-1,2.76L5.47,52.5,4.2,54.22l-.6-.53-.6,2s-.67.83-1,.83c-.52-3.15-.3-45.27-2-54.18-.07-.3.3-1,1.05-1.12C4.35.42,13-.48,12.58,13.36Z"/><path d="M64.81,45.31,64.06,48l-.75.15L63,50l-.59,2.24-1,.15-.15,1.72a2.22,2.22,0,0,0-1.19.08c-.23.07-.15.75-.38.82-4-7.33-6.81-20.5-8.38-32.1C48.8,31,45,41.72,42.59,48.16c-.53,1.57-7.56,4.11-8.24-2.62-1.79-4.12-4.71-11.53-7.85-19-1.2,11.23-2.62,19.76-2.62,19.76l-1-.15-2.85,5-1.94.6-.6,1.2s-1.2-1-1.87-.68-1.05,1.95-1.5,1.95c.9-9.21,2.47-39.51,1.42-50.66,0-.08-.07-.15-.15-.23a.25.25,0,0,0,.15-.07A14.33,14.33,0,0,0,15.27,1a12.08,12.08,0,0,1,6.06-.3C25.38-.11,29.79.56,30.84,4c3,10.32,5.68,20,7.26,26A282.4,282.4,0,0,1,49.55,3.78a12.87,12.87,0,0,1-.08-1.64c3-1.87,10.48-2.92,12.2.52,1,2,.67,4.86.75,11.45A264,264,0,0,0,64.81,45.31Z"/><path d="M84.79,52.42c-2.7,0-7.56.38-12.2-.82-.3.52-.6,1-.82,1.42-.38.6-.9-.07-1.12-.82-.3,1.57-.15,2-.68,2.32-.37.22-.82,1.34-1.12,1.42a54.22,54.22,0,0,1-.3-5.91C64.81,48,61.82,44.41,61,37.9a26.9,26.9,0,0,0,7.34,2.77c-.08-3.81-.15-7.93-.3-12-1.2,0-2.47.08-3.82.15,0,0-4-2.39-1.5-8.08a4.92,4.92,0,0,1,1.87-.6l-.07-.82s1.27-.3,3.22-.83c-.15-2.62-.3-5.08-.45-7.25a3.6,3.6,0,0,1-1.72-.3c-1.2-.9-2.32-4.87-1.28-6.66l2.18-.38a2.71,2.71,0,0,0-.3-.9s5.46-2.32,8.68-.15c6.88-.74,15.56-1.19,20.65.3,2.47,1.8,3.07,6.36,3.07,10,0,0-.68,3.44-6.51,6.58,8.08,2,14.81,6.51,15.34,16C108.06,47.56,97.51,52.35,84.79,52.42ZM77.31,28.55c-.23,6.06-.68,10.33-1,13.1,7.18.22,15.34-1.2,21.85-5.92C98.11,35.73,99.23,29.07,77.31,28.55Zm.07-13c4.34-1.5,8.68-3.29,10.93-5.16-.9-.53-5.92-.15-11,.3C77.31,12.39,77.38,14,77.38,15.53Z"/><path d="M140,50.85c-.15.52-.82,3.07-.82,3.07l-.68-.38c-8-1.12-22.59.6-28.81,2.62-5.23,1.72-6.73-5.46-4.56-10.32,7.86-4.57,31.5-2.55,33.82,1.49.15.15-.37-.07-.37-.07l1,1.27-.68.15S140.16,50.33,140,50.85ZM104.84,35.06a125.63,125.63,0,0,0,8.83-33c6.14-.9,9.58-.67,11.3.53,2.92-.08,5.69.89,6.21,4.34a166.09,166.09,0,0,0,8.83,34c-.07,0-1.2-1.2-1.2-1.2l-.52.82-.82-.52-.68-.37-.82.67s-.3-.67-.67-1.35c-.23.6-1.2,2.92-1.2,2.92l-.67-.45c-7.71-2.17-16.47-1.2-22.9,0-3.44.6-4.87-2.09-4.79-5.31C105.51,35.59,105.29,35.06,104.84,35.06Zm21.85-4.26C125,27,123.55,23.16,122.2,19.57c-1.35,3.44-2.84,6.66-4.41,9.73A41.68,41.68,0,0,1,126.69,30.8Z"/><path d="M179,2.81c-.3,2.77-2.7,7.78-9.21,9.88-3.81.15-7.33.37-10.48.52-.44,15.12-2.54,32.33-2.54,32.33l-1.65,3.66-.59-.07-1.2,2.69s-.38-.6-.9.08a8.26,8.26,0,0,0-.67,1.57h-.6l-1,1.5-.68-1.88s-.67,2.55-1,2.62c-.37-2.32-.3-26.19-1-41.9-6.74.37-10.55.6-11.83.67-6.28.15-6.43-12.12-2.39-12.72a101.75,101.75,0,0,1,13.39-.67,2.31,2.31,0,0,1,.83-.6c1.87-.52,5.31-1,8,.82C163,1.61,171,2.21,179,2.81Z"/><path d="M182.44,13.36c-.6,15.49-2.17,33.67-2.17,33.67l-.53-.67-.37,1.87-.9.23-1,2.76-2.17,1.28-1.27,1.72-.6-.53-.6,2s-.67.83-1,.83c-.53-3.15-.3-45.27-2-54.18-.07-.3.3-1,1-1.12C174.2.42,182.89-.48,182.44,13.36Z"/><path d="M206.38,52.42c-2.69,0-7.56.38-12.2-.82-.3.52-.59,1-.82,1.42s-.9-.07-1.12-.82c-.3,1.57-.15,2-.68,2.32-.37.22-.82,1.34-1.12,1.42a54.22,54.22,0,0,1-.3-5.91c-3.74-2-6.73-5.62-7.55-12.13a26.82,26.82,0,0,0,7.33,2.77c-.08-3.81-.15-7.93-.3-12-1.2,0-2.47.08-3.82.15,0,0-4-2.39-1.49-8.08a4.92,4.92,0,0,1,1.87-.6l-.08-.82s1.27-.3,3.22-.83c-.15-2.62-.3-5.08-.45-7.25a3.6,3.6,0,0,1-1.72-.3c-1.2-.9-2.32-4.87-1.27-6.66l2.17-.38a2.71,2.71,0,0,0-.3-.9s5.46-2.32,8.68-.15c6.88-.74,15.56-1.19,20.65.3,2.47,1.8,3.07,6.36,3.07,10,0,0-.67,3.44-6.51,6.58,8.08,2,14.82,6.51,15.34,16C229.65,47.56,219.1,52.35,206.38,52.42ZM198.9,28.55c-.23,6.06-.67,10.33-1.05,13.1,7.18.22,15.34-1.2,21.85-5.92C219.7,35.73,220.82,29.07,198.9,28.55Zm.07-13c4.34-1.5,8.68-3.29,10.93-5.16-.9-.53-5.91-.15-11,.3C198.9,12.39,199,14,199,15.53Z"/><path d="M256.44,49.2c-.22.6-.9,3.07-.9,3.07l-.67-.3C246.94,50.85,238.41,53,232.19,55c-5.23,1.65-6.65-5.54-4.56-10.33l.9-.45c.07-13.69.3-36.14-.82-42.5-.08-.3.29-1,1-1.2,3.37-.82,12.2-1.64,11.38,12-.68,12.12-2,24.17-2.55,29.48,7.71-.67,16.24.9,17.81,3.67.08.15-.37-.07-.37-.07L256,47l-.67.15S256.59,48.76,256.44,49.2Z"/><path d="M297.15,35.14c0,.52-1.43,1.87-1.43,1.87l-.37.89-2.84,1.35,2.09.23a15.3,15.3,0,0,0-3.29,1.79c-1.27,1-1.65,2-2.62,2.4-.75,0-16.61,3.51-31.65,10.85-2.32,1.12-6.59-8.68-2.85-10.63a8.28,8.28,0,0,1,1.58-.67c0-12.8.37-35.32-1-40.11a14,14,0,0,1,5.91-.9c7.94-1,25.07-.67,29.94-.6a9.51,9.51,0,0,0-.08,2,8.11,8.11,0,0,0-2.32,1.64c-.22.23-1.72,1.28-1.72,1.28l1.5.07-2.47,1.27-.08.9s-3,1.27-3.44,1.42c-.37,0-8,1.28-14.59,2.32,0,.6-.08,1.2-.08,1.8-.07,1.94-.22,3.74-.37,5.54a156.65,156.65,0,0,1,18.78-1.2,5.69,5.69,0,0,1-.6,1.57l-.3,1.8-2.32,1.27,1,.07-2.47,1.57.07.75-2.69.68-.52.89s-2.7,1.28-3.75,1.65c-.45,0-4.56,1.2-8.3,2.1-.38,4-.83,7-1.12,8.9C274.85,36.56,288.54,33.49,297.15,35.14Z"/><path d="M119.59,72.26c-.3,2.77-2.69,7.78-9.2,9.87-3.82.15-7.33.38-10.48.53C99.46,97.77,97.37,115,97.37,115l-1.65,3.67-.6-.07-1.19,2.69s-.38-.6-.9.07a8.08,8.08,0,0,0-.68,1.58h-.59l-1,1.49-.67-1.87s-.67,2.55-1,2.62c-.38-2.32-.3-26.19-1-41.9-6.73.37-10.55.6-11.82.67-6.28.15-6.43-12.12-2.39-12.72a101.65,101.65,0,0,1,13.39-.67,2.36,2.36,0,0,1,.82-.6c1.88-.53,5.32-1,8,.82C103.58,71.06,111.59,71.66,119.59,72.26Z"/><path d="M159.48,123.81c-17.81-.82-21.56-17.66-22.23-27.46-2.09,7.11-6.88,12.12-13.24,12-9.81-.15-15.42-12.94-15.42-19.45,0-10.48,5.54-17.29,6.36-17.66,3.15-1.42,7.26,2.09,7.56,3.59v.08c.22-.08.45-.23.37-.45s-.52-.38-.52-.53a1.54,1.54,0,0,1,.9-1c3.37-1.5,12.49.82,14.66,10.77.83-4.86,2-9.2,2-9.2s-.6-2-.15-2.32c2.1-1.8,12.35-1.65,12.27,5,0,1.95-7,27.69,1.87,39.58,16-5.46,11.75-40.7,4.34-45.72l.53-.67a6.78,6.78,0,0,1,1.27.08c.07.07,5.31,3.74,6.81,7.7-1.42-4.86-5.76-7.85-5.61-7.85C180.88,74.58,181.25,124.86,159.48,123.81Zm-44.6-.74c6.21-2,15.64-4.12,23.64-3l.68.38s.67-2.55.82-3.07-1.05-2.17-1.05-2.17l.6-.15-1-1.2s.45.15.37,0c-2.32-4-20.8-5.69-28.66-1.12C108.14,117.6,109.64,124.79,114.88,123.07Zm14.51-37.49c0-11-6.81-10.55-6.81-10.55.08.59-.07,1.49-.82,1.57a18.32,18.32,0,0,0-3.07,10.1c0,8.45,4.34,11.22,5.17,11.3C125.28,98.15,129.39,94.26,129.39,85.58Z"/><path d="M207,104.81c2.84,5.16,4.12,11.52,3.07,16.09a21.36,21.36,0,0,0-2.62-11.83s2.84,9.58,1.87,12.72a5.09,5.09,0,0,1-.37-.45s-.9,1.5-1.35,1.58-2,.44-2,.44l-.67-.74c-1.5-5.84-4.94-11.08-8.23-15.27a48.17,48.17,0,0,1-6.66.45h-.45c-.3,4.64-.52,7.71-.52,7.71s-.53.9-1.28,2.09c-.44.68-1.49,3-1.49,3a3.38,3.38,0,0,0-1.42,1,14.9,14.9,0,0,0-.6,1.5l-.6-.08-.9,1.42s-.52-.37-.67-.3c-.38.15-.6,1-.9,1-.23-1.28-.45-10-.75-20a12.42,12.42,0,0,1-5.39-7.26,8.82,8.82,0,0,1-.3-3.07c.38,2,1.5,4.79,2.25,5.46-1.42-2.84-1.87-5.61-1.5-7.26.38,1.13,2.1,2.47,4.72,3.52-.23-4.94-.45-9.8-.68-13.84-1.49.22-3,.52-4.56.9-2.4-.9-4.72-7.26-2.1-9.66s44.3-12,44.08,16.84C216.94,98.22,212.45,102.41,207,104.81ZM190.68,81.39c.07.74.07,1.64.07,2.61-.07,4.72-.3,9.73-.6,14.37,9.06-.07,20.66-4.79,21-9.73C211.48,84.45,204,80.86,190.68,81.39Z"/></g></g></svg>